<?xml version="1.0" encoding="utf-8"?>
<!-- Generator: Adobe Illustrator 19.2.1, SVG Export Plug-In . SVG Version: 6.00 Build 0)  -->
<svg version="1.1" id="Capa_1" xmlns="http://www.w3.org/2000/svg" xmlns:xlink="http://www.w3.org/1999/xlink" x="0px" y="0px"
	 viewBox="0 0 612 1008" style="enable-background:new 0 0 612 1008;" xml:space="preserve">
<style type="text/css">
	.st0{fill:none;stroke:#000000;stroke-width:0.5;}
	.st1{fill:none;stroke:#000000;stroke-miterlimit:10;}
	.st2{fill:none;stroke:#E52420;stroke-width:0.5;}
	.st3{fill:none;stroke:#E52420;stroke-width:0.25;}
</style>
<path class="st0" d="M473.6,277.2v85h4.3v11.3h20v-11.3h4.3v-85c0-7.8-6.3-14.2-14.2-14.2h-0.3C480,263,473.6,269.4,473.6,277.2z"/>
<path class="st0" d="M110,277.2v85h4.3v11.3h20v-11.3h4.3v-85c0-7.8-6.3-14.2-14.2-14.2h-0.3C116.3,263,110,269.4,110,277.2z"/>
<g>
	<rect x="147.9" y="413.2" class="st0" width="20" height="11.3"/>
	<rect x="447.9" y="413.2" class="st0" width="20" height="11.3"/>
</g>
<g>
	<polygon class="st0" points="432.4,322 434.9,323.5 436.4,326 436.4,328.9 434.9,331.5 432.4,332.9 429.4,332.9 426.9,331.5 
		425.4,328.9 425.4,326 426.9,323.5 429.4,322 	"/>
	<polygon class="st0" points="339.9,489.5 339.3,491.8 337.7,493.4 335.4,494 333.4,493.5 333.1,493.4 331.5,491.8 330.8,489.5 
		331.5,487.2 333.1,485.6 333.4,485.5 335.4,485 337.7,485.6 339.3,487.2 	"/>
	<polygon class="st0" points="418.9,496.6 418.9,497.1 419.4,502.1 418.9,507.6 417.3,513 414.6,517.9 411.1,522.1 406.8,525.7 
		401.9,528.3 400.7,528.7 397.2,529.7 396.6,529.9 393.9,530.2 391.1,530.5 385.5,529.9 383.9,529.4 380.2,528.3 379.8,528.1 
		375.3,525.7 371,522.1 367.5,517.9 364.9,513 363.3,507.6 362.7,502.1 363.3,496.6 364,494 364.7,492 364.9,491.3 367.5,486.4 
		371,482.1 375.3,478.5 380.2,475.9 383.9,474.8 385.5,474.3 391.1,473.8 393.9,474 396.6,474.3 397.2,474.5 401.9,475.9 
		406.8,478.5 411.1,482.1 414.6,486.4 417.3,491.3 417.5,492 	"/>
	<polygon class="st0" points="464.5,444.1 464.1,444.4 462.4,446.2 459.5,446.9 456.7,446.2 455,444.4 454.6,444.1 454,441.9 
		453.9,441.2 454.6,438.4 456.7,436.3 459.5,435.6 462.4,436.3 464.5,438.4 465.2,441.2 465,441.9 	"/>
	<polygon class="st0" points="276.5,346.1 275.8,348.3 276.5,350.6 278.1,352.3 280.4,352.9 282.7,352.3 284.3,350.6 284.9,348.3 
		284.3,346.1 282.7,344.4 280.4,343.8 278.1,344.4 	"/>
	<polygon class="st0" points="392.9,307.6 391.1,307.4 385.5,307.9 383.9,308.4 380.2,309.5 379.8,309.7 375.3,312.2 371,315.7 
		367.5,320 364.9,324.9 363.3,330.2 362.7,335.7 363.3,341.3 364.9,346.6 367.5,351.5 368.4,352.6 371,355.8 375.3,359.3 
		380.2,361.9 383.9,363 385.5,363.5 391.1,364.1 392.9,363.9 394.4,363.8 396.6,363.5 397.2,363.4 401.9,361.9 406.8,359.3 
		411.1,355.8 413.7,352.6 414.6,351.5 417.3,346.6 418.9,341.3 419.4,335.7 418.9,330.2 418.6,329.4 417.3,324.9 414.6,320 
		411.1,315.7 406.8,312.2 401.9,309.5 397.2,308.1 396.6,307.9 394.4,307.7 	"/>
	<polygon class="st0" points="334.1,429.8 333.4,431 331.5,434.7 330.8,435.4 327.9,439 323.6,442.5 318.7,445.1 313.4,446.7 
		307.9,447.3 302.4,446.7 297,445.1 292.1,442.5 287.8,439 287,437.9 284.9,435.4 284.3,434.7 281.7,429.8 280.1,424.4 280,423.5 
		279.5,418.9 280.1,413.4 281.7,408.1 284.3,403.2 287,399.9 287.7,399.1 287.8,398.9 292.1,395.3 297,392.7 302.4,391.1 
		307.9,390.6 313.4,391.1 318.7,392.7 323.6,395.3 327.9,398.9 328.1,399.1 331.5,403.2 333.4,406.8 334.1,408.1 335.7,413.4 
		336.2,418.9 335.7,424.4 	"/>
	<polygon class="st0" points="221.9,297.4 220.4,299.9 217.9,301.4 215,301.4 212.4,299.9 211,297.4 211,294.4 212.4,291.9 
		215,290.4 217.9,290.4 220.4,291.9 221.9,294.4 	"/>
	<polygon class="st0" points="394.4,293.9 395.8,291.4 398.4,289.9 401.3,289.9 403.9,291.4 405.3,293.9 405.3,296.9 403.9,299.4 
		401.3,300.9 398.4,300.9 395.8,299.4 394.4,296.9 	"/>
	<polygon class="st0" points="333.1,344.4 331.5,346.1 330.8,348.3 331.5,350.6 333.1,352.3 333.4,352.3 335.4,352.9 337.7,352.3 
		339.3,350.6 339.9,348.3 339.3,346.1 337.7,344.4 335.4,343.8 333.4,344.3 	"/>
	<polygon class="st0" points="248.3,320 250.9,324.9 252.5,330.2 253,335.7 252.5,341.3 250.9,346.6 248.3,351.5 247.3,352.6 
		244.7,355.8 240.4,359.3 235.5,361.9 230.2,363.5 224.7,364.1 219.2,363.5 213.8,361.9 211,360.4 208.9,359.3 204.7,355.8 
		202.1,352.6 201.1,351.5 198.5,346.6 196.9,341.3 196.3,335.7 196.7,332.4 196.9,330.2 197.1,329.4 197.5,328.2 198.5,324.9 
		200.3,321.5 201.1,320 204.7,315.7 208.9,312.2 211,311.1 213.8,309.5 219.2,307.9 224.7,307.4 230.2,307.9 235.5,309.5 
		240.4,312.2 240.5,312.2 244.7,315.7 	"/>
	<polygon class="st0" points="384.5,421.2 386.1,422.8 388.4,423.5 390.7,422.8 392.3,421.2 392.9,418.9 392.3,416.6 390.7,415 
		388.4,414.4 386.1,415 384.5,416.6 383.9,418.9 	"/>
	<polygon class="st0" points="156.2,402.3 153.4,401.5 151.3,399.4 150.6,396.6 151.3,393.8 153.4,391.7 156.2,390.9 159.1,391.7 
		161.1,393.8 161.9,396.6 161.1,399.4 159.1,401.5 	"/>
	<polygon class="st0" points="397.9,547.4 395.3,546 393.9,543.4 393.9,540.5 395.3,537.9 397.9,536.5 400.8,536.5 403.4,537.9 
		404.8,540.5 404.8,543.4 403.4,546 400.8,547.4 	"/>
	<polygon class="st0" points="463.1,391.7 465.2,393.8 465.8,396 465.9,396.6 465.2,399.4 463.1,401.5 460.3,402.3 457.4,401.5 
		455.3,399.4 454.6,396.6 454.8,396 455.3,393.8 457.4,391.7 460.3,390.9 	"/>
	<polygon class="st0" points="253,502.1 252.5,507.6 250.9,513 248.3,517.9 244.7,522.1 240.5,525.6 240.4,525.7 235.5,528.3 
		230.2,529.9 224.7,530.5 222.8,530.3 219.2,529.9 213.8,528.3 210.5,526.5 208.9,525.7 204.7,522.1 201.1,517.9 200.1,515.8 
		198.5,513 198.1,511.7 196.9,507.6 196.6,504.9 196.3,502.1 196.8,497.1 196.9,496.6 198.3,492 198.5,491.3 201.1,486.4 
		204.7,482.1 208.9,478.5 210.5,477.7 213.8,475.9 219.2,474.3 222.8,473.9 224.7,473.8 230.2,474.3 235.5,475.9 240.4,478.5 
		244.7,482.1 248.3,486.4 250.9,491.3 251.1,492 252.5,496.6 	"/>
	<polygon class="st0" points="432.9,505.4 435.4,506.9 436.9,509.4 436.9,512.3 435.4,514.9 432.9,516.4 429.9,516.4 427.4,514.9 
		425.9,512.3 425.9,509.4 427.4,506.9 429.9,505.4 	"/>
	<polygon class="st0" points="155.5,446.9 152.7,446.2 151,444.4 150.6,444.1 149.8,441.2 150.6,438.4 152.7,436.3 155.5,435.6 
		158.4,436.3 160.4,438.4 161.2,441.2 160.4,444.1 160.1,444.4 158.4,446.2 	"/>
	<polygon class="st0" points="185.8,332.4 188.4,331 189.8,328.4 189.8,325.5 188.4,322.9 185.8,321.5 182.9,321.5 180.3,322.9 
		178.9,325.5 178.9,328.4 180.3,331 182.9,332.4 	"/>
	<polygon class="st0" points="179.4,508.9 180.8,506.4 183.4,504.9 186.3,504.9 188.9,506.4 190.3,508.9 190.3,511.8 188.9,514.4 
		186.3,515.8 183.4,515.8 180.8,514.4 179.4,511.8 	"/>
	<polygon class="st0" points="217.4,537 219.9,538.4 221.4,541 221.4,543.9 219.9,546.5 217.4,547.9 214.5,547.9 211.9,546.5 
		210.5,543.9 210.5,541 211.9,538.4 214.5,537 	"/>
	<polygon class="st0" points="276.5,491.8 278.1,493.4 280.4,494 282.7,493.4 284.3,491.8 284.9,489.5 284.3,487.2 282.7,485.6 
		280.4,485 278.1,485.6 276.5,487.2 275.8,489.5 	"/>
	<polygon class="st0" points="229.6,415 227.4,414.4 225.1,415 223.4,416.6 222.8,418.9 223.4,421.2 225.1,422.8 227.4,423.5 
		229.6,422.8 231.3,421.2 231.9,418.9 231.3,416.6 	"/>
	<polygon class="st0" points="281.8,251.4 279.9,251.6 279.5,251.6 275.8,252 274.7,252.1 242.8,261.8 224,271.8 213.4,277.5 
		211,279.5 200.5,288.1 187.6,298.7 178.9,309.3 166.5,324.4 161.9,333 150.8,353.8 141.1,385.7 139.8,399.1 137.8,418.9 
		141.1,452.1 150.8,484 161.9,504.8 166.5,513.4 179.4,529.1 187.6,539.2 196.3,546.3 210.5,557.9 213.4,560.3 222.8,565.4 
		242.8,576 274.7,585.7 275.8,585.8 279.5,586.2 279.9,586.2 281.8,586.4 281.8,582.2 288.6,582.2 288.6,587.1 307.9,589 
		324.5,587.4 327.2,587.1 327.2,582.2 334,582.2 334,586.4 341.1,585.7 370,577 373,576 383.9,570.2 393.9,564.9 402.4,560.3 
		418.1,547.4 418.8,546.8 425.9,541 428.2,539.2 446.9,516.4 448.5,514.4 449.3,513.4 453.6,505.4 464.1,485.6 465,484 474.7,452.1 
		477.5,423.5 478,418.9 474.7,385.7 465,353.8 453.9,333 453.9,332.9 449.3,324.4 447.3,322 441.6,315 428.2,298.7 425.4,296.4 
		417.5,289.9 409.6,283.4 402.4,277.5 394.4,273.2 392.9,272.5 383.9,267.6 373,261.8 362.7,258.7 341.1,252.1 339.9,252 
		335.9,251.6 334,251.4 334,255.6 327.2,255.6 327.2,250.7 324.5,250.5 307.9,248.8 291.2,250.5 288.6,250.7 288.6,255.6 
		281.8,255.6 	"/>
</g>
<rect x="327.2" y="521.4" class="st0" width="6.8" height="6.8"/>
<rect x="281.5" y="521.4" class="st0" width="6.8" height="6.8"/>
<rect x="281.7" y="309.7" class="st0" width="6.8" height="6.8"/>
<rect x="327.2" y="309.7" class="st0" width="6.8" height="6.8"/>
<g>
	<path class="st0" d="M393.2,759.4l-15.4-3l-5.5-3.3l-4.5-4.9l-3.7-6.1l-3.1-7.8l-1.9-7.4l-1.2-8.4l-0.4-8.4l0.5-9l1.3-8.4l1.7-6.5
		l-1.3,0.8l-4.2,3.1l-4.1,3.7l-3.7,4.1l-3.1,4.2l-2.4,4.2l-1.6,3.9l-0.8,3.4l-0.1,2.5l0.4,1.4l-10.1,24.4l-8.7-13l-1.5-6.2l0.2-6.7
		l1.7-6.9l3.1-7.4l4.3-7.3l4.8-6.5l5.8-6.4l6.5-5.8l6.9-5l5.9-3.4l-1.5-0.4l-5.2-0.8l-5.5-0.3l-5.5,0.3l-5.2,0.8l-4.7,1.3l-3.9,1.6
		l-2.9,1.8l-1.8,1.7l-0.8,1.3l-24.4,10.1l3-15.4l3.3-5.5l4.9-4.6l6.1-3.7l7.4-3l7.8-2.1l8.4-1.2l8.4-0.4l9,0.5l8.4,1.3l6.5,1.8
		l-0.8-1.4l-3.1-4.2l-3.7-4.1l-4.1-3.7l-4.2-3.1l-4.2-2.4l-3.9-1.6l-3.4-0.8l-2.5-0.1l-1.4,0.3l-24.4-10.1l13-8.7l6.2-1.5l6.7,0.2
		l6.9,1.7l7.4,3.1l7.3,4.3l6.5,4.8l6.4,5.8l5.8,6.5l5,6.9l3.4,5.9l0.4-1.5l0.8-5.2l0.3-5.5l-0.3-5.8l-0.7-4.9l-1.3-4.7l-1.6-3.9
		l-1.8-2.9l-1.7-1.8l-1.3-0.8L372,588.8l15.4,3l5.5,3.3l4.5,4.9l3.7,6.1l3,7.4l2,7.8l1.2,8.4l0.4,8.4l-0.5,9l-1.3,8.4l-1.7,6.5
		l1.3-0.8l4.2-3.1l4.1-3.7l3.7-4.1l3.1-4.2l2.4-4.2l1.6-3.9l0.8-3.4l0.1-2.5l-0.4-1.4l10.1-24.4l8.7,13l1.5,6.2l-0.2,6.7l-1.7,6.9
		l-3.1,7.4l-4.3,7.3l-4.8,6.5l-5.8,6.4l-6.5,5.8l-6.9,5l-5.9,3.4l1.5,0.4l5.2,0.8l5.5,0.3l5.5-0.3l5.2-0.8l4.7-1.3l3.9-1.6l2.9-1.8
		l1.8-1.7l0.8-1.3l24.4-10.1l-3,15.4l-3.3,5.5l-4.9,4.5l-6.1,3.7l-7.4,3l-7.8,2l-8.4,1.2l-8.4,0.4l-9-0.5l-8.4-1.3l-6.5-1.7l0.8,1.3
		l3.1,4.2l3.7,4.1l4.1,3.7l4.2,3.1l4.2,2.4l3.9,1.6l3.4,0.8l2.5,0.1l1.4-0.4l24.4,10.1l-13,8.7l-6.2,1.5l-6.7-0.2l-6.9-1.7l-7.4-3.1
		l-7.3-4.3l-6.5-4.8l-6.4-5.8l-5.8-6.5l-5-6.9l-3.4-5.9l-0.4,1.5l-0.8,5.2l-0.3,5.5l0.3,5.5l0.8,5.2l1.3,4.7l1.8,4.2l1.6,2.7
		l1.7,1.8l1.3,0.8L393.2,759.4z"/>
</g>
<g>
	<g>
		<path class="st1" d="M388.3,679.1H377l-0.1-0.1c-1.2-1.4-1.8-3.1-1.8-4.9c0-1.8,0.6-3.5,1.8-4.9l0.1-0.1l11.3,0l0.1,0.1
			c1.2,1.4,1.8,3.1,1.8,4.9S389.5,677.6,388.3,679.1L388.3,679.1z"/>
	</g>
</g>
<g>
	<path class="st0" d="M209.1,735l1.3-0.8l1.7-1.8l1.6-2.7l1.8-4.2l1.3-4.7l0.8-5.2l0.3-5.5l-0.3-5.5l-0.8-5.2l-0.4-1.5l-3.4,5.9
		l-5,6.9l-5.8,6.5l-6.4,5.8l-6.5,4.8l-7.3,4.3l-7.4,3.1l-6.9,1.7l-6.7,0.2l-6.2-1.5l-13-8.7l24.4-10.1l1.4,0.4l2.5-0.1l3.4-0.8
		l3.9-1.6l4.2-2.4l4.2-3.1l4.1-3.7l3.7-4.1l3.1-4.2l0.8-1.3l-6.5,1.7l-8.4,1.3l-9,0.5l-8.4-0.4l-8.4-1.2l-7.8-2l-7.4-3l-6.1-3.7
		l-4.9-4.5l-3.3-5.5l-3-15.4l24.4,10.1l0.8,1.3l1.8,1.7l2.9,1.8l3.9,1.6l4.7,1.3l5.2,0.8l5.5,0.3l5.5-0.3l5.2-0.8l1.5-0.4l-5.9-3.4
		l-6.9-5l-6.5-5.8l-5.8-6.4l-4.8-6.5l-4.3-7.3l-3.1-7.4l-1.7-6.9l-0.2-6.7l1.5-6.2l8.7-13l10.1,24.4l-0.4,1.4l0.1,2.5l0.8,3.4
		l1.6,3.9l2.4,4.2l3.1,4.2l3.7,4.1l4.1,3.7l4.2,3.1l1.3,0.8l-1.7-6.5l-1.3-8.4l-0.5-9l0.4-8.4l1.2-8.4l2-7.8l3-7.4l3.7-6.1l4.5-4.9
		l5.5-3.3l15.4-3l-10.1,24.4l-1.3,0.8l-1.7,1.8l-1.8,2.9l-1.6,3.9l-1.3,4.7l-0.7,4.9l-0.3,5.8l0.3,5.5l0.8,5.2l0.4,1.5l3.4-5.9
		l5-6.9l5.8-6.5l6.4-5.8l6.5-4.8l7.3-4.3l7.4-3.1l6.9-1.7l6.7-0.2l6.2,1.5l13,8.7l-24.4,10.1l-1.4-0.3l-2.5,0.1l-3.4,0.8l-3.9,1.6
		l-4.2,2.4l-4.2,3.1l-4.1,3.7l-3.7,4.1l-3.1,4.2l-0.8,1.4l6.5-1.8l8.4-1.3l9-0.5l8.4,0.4l8.4,1.2l7.8,2.1l7.4,3l6.1,3.7l4.9,4.6
		l3.3,5.5l3,15.4l-24.4-10.1l-0.8-1.3l-1.8-1.7l-2.9-1.8l-3.9-1.6l-4.7-1.3l-5.2-0.8l-5.5-0.3l-5.5,0.3L235,667l-1.5,0.4l5.9,3.4
		l6.9,5l6.5,5.8l5.8,6.4l4.8,6.5l4.3,7.3l3.1,7.4l1.7,6.9l0.2,6.7l-1.5,6.2l-8.7,13l-10.1-24.4l0.4-1.4l-0.1-2.5l-0.8-3.4l-1.6-3.9
		l-2.4-4.2l-3.1-4.2l-3.7-4.1l-4.1-3.7l-4.2-3.1l-1.3-0.8l1.7,6.5l1.3,8.4l0.5,9l-0.4,8.4l-1.2,8.4l-1.9,7.4l-3.1,7.8l-3.7,6.1
		l-4.5,4.9l-5.5,3.3l-15.4,3L209.1,735z"/>
</g>
<g>
	<g>
		<path class="st1" d="M215.3,679.1H204l-0.1-0.1c-1.2-1.4-1.8-3.1-1.8-4.9c0-1.8,0.6-3.5,1.8-4.9l0.1-0.1l11.3,0l0.1,0.1
			c1.2,1.4,1.8,3.1,1.8,4.9C217.2,675.9,216.5,677.6,215.3,679.1L215.3,679.1z"/>
	</g>
</g>
<g>
	<path class="st2" d="M417.5,424.7c-0.2,0-0.4,0-0.6,0.1c-0.8,0.2-1.4,0.6-1.9,1.3c-0.4,0.7-0.6,1.5-0.4,2.2
		c0.4,1.6,1.9,2.6,3.5,2.3c1.6-0.4,2.6-1.9,2.3-3.5C420.1,425.7,418.9,424.7,417.5,424.7z"/>
	<path class="st2" d="M430.4,427.1c-0.2,0-0.4,0-0.6,0.1c-1.6,0.4-2.6,1.9-2.3,3.5c0.2,0.8,0.6,1.4,1.3,1.9c0.7,0.4,1.5,0.6,2.2,0.4
		c1.6-0.4,2.6-1.9,2.3-3.5C433,428,431.8,427.1,430.4,427.1z"/>
	<path class="st2" d="M412.4,411.2c-0.3-1.4-1.5-2.3-2.9-2.3c-0.2,0-0.4,0-0.6,0.1c-1.6,0.4-2.6,1.9-2.3,3.5
		c0.4,1.6,1.9,2.6,3.5,2.3C411.8,414.4,412.8,412.8,412.4,411.2z"/>
	<path class="st2" d="M408.2,398.5l-11.8,11.7l17.1,31.6h23.2l5.7-21.1L408.2,398.5z M431.2,433.7c-0.3,0.1-0.6,0.1-0.8,0.1
		c-0.7,0-1.4-0.2-2-0.6c-0.9-0.5-1.5-1.4-1.7-2.4c-0.1-0.3-0.1-0.7-0.1-1l-5.4-1c-0.4,1.3-1.4,2.3-2.8,2.6c-0.3,0.1-0.6,0.1-0.8,0.1
		c-1.7,0-3.3-1.2-3.7-3c-0.2-1,0-2,0.5-2.9c0,0,0.1-0.1,0.1-0.1l-4.4-4l-0.6-5.8c-1.7,0-3.2-1.2-3.6-3c-0.5-2.1,0.8-4.1,2.9-4.5
		c2.1-0.5,4.1,0.8,4.5,2.9c0.4,2-0.8,4-2.8,4.5l0.6,5.4l4.1,3.8c0.5-0.4,1-0.6,1.6-0.8c2.1-0.5,4.1,0.8,4.5,2.9
		c0.1,0.3,0.1,0.6,0.1,0.9l5.4,1c0.4-1.2,1.4-2.2,2.8-2.5c2.1-0.5,4.1,0.8,4.5,2.9C434.6,431.3,433.3,433.3,431.2,433.7z"/>
</g>
<g id="g97">
	<path id="path99" inkscape:connector-curvature="0" class="st3" d="M219.1,413.3c-0.7-2.2-1.8-4.2-3.3-5.9
		c-5.8-6.7-15.2-7.5-18.9-7.5c-8,0-15.4,2.9-19.4,7.5c-0.3,0.4-0.7,0.8-1,1.3c-0.3,0.5-0.6,0.9-0.8,1.4c-0.5,1.1-1,2.1-1.4,3.1
		c-1.7,4.3-2,7.6-0.8,10.1c0.4,0.9,1.1,1.7,1.8,2.3c0,1.4,0.3,3.3,1.6,5.1c0,0.1,0.1,0.1,0.1,0.2c1.7,2.2,4.4,3.4,8,3.7
		c0.3,0,0.6,0,0.9,0c-0.2,3.2,0.3,4.4,1,5.1c0.4,0.4,1,0.7,1.7,0.7h3.2c1.3,0,2.3-1,2.4-2.3l0.1-2.3l0-0.1c0-0.3,0-0.5-0.1-0.8
		c0-0.3,0.4-0.9,1-1.6c1,0,1.9-0.4,2.6-1.1c0.4-0.4,0.7-0.8,0.9-1.3c1.7,0,3.4-0.2,5.3-0.8c1.9-0.5,3.3-1.5,4.1-3
		c0.2-0.3,0.3-0.7,0.4-1c0.9,0,1.8-0.1,2.6-0.2c3.8-0.5,6.4-1.9,7.9-4.2C221.1,418.2,219.5,414.3,219.1,413.3z M217.6,420.9
		c-1.2,1.9-3.4,3.1-6.7,3.5c-1.1,0.1-2.3,0.2-3.7,0.2c0,0.1,0,0.2,0,0.3c0,0.5-0.2,1-0.4,1.5c-0.6,1.1-1.6,1.8-3.2,2.2
		c-2.3,0.6-4.2,0.8-6.1,0.6c0,0.1,0,0.3-0.1,0.4c-0.1,0.6-0.4,1.1-0.7,1.4c-0.5,0.5-1.3,0.7-2.2,0.6c-0.9,0.8-2.3,2.5-1.9,3.6
		c0,0.1,0.1,0.2,0.1,0.3l-0.1,2.4c0,0.5-0.4,0.8-0.9,0.8h-3.2c-0.2,0-0.4-0.1-0.6-0.2c-0.2-0.2-0.9-0.8-0.4-5.6
		c-0.8,0.1-1.6,0.1-2.5,0c-3.2-0.2-5.5-1.2-6.9-3.1c0,0,0-0.1-0.1-0.1l0-0.1c-1.3-1.9-1.3-4-1.2-5c-0.1-0.1-0.2-0.1-0.3-0.2
		c-0.7-0.5-1.3-1.1-1.7-1.9c-1-2.1-0.7-5.1,0.8-8.9c0.4-1,0.9-2,1.4-3c0.2-0.4,0.4-0.8,0.7-1.2c0.3-0.4,0.6-0.8,0.9-1.2
		c3.7-4.3,10.7-6.9,18.2-6.9c7.4,0,14,2.6,17.8,6.9c1.4,1.6,2.4,3.4,3,5.4l0,0.1C217.8,414.3,219.5,417.9,217.6,420.9z"/>
	<path id="path151" inkscape:connector-curvature="0" class="st3" d="M178.4,425.1c0.8,0.1,2.2,0.4,3.7,0.7
		c-1.1,0.8-2.3,1.4-3.4,1.8C178.4,426.6,178.4,425.7,178.4,425.1z"/>
	<path id="path153" inkscape:connector-curvature="0" class="st3" d="M185.9,426.5c-1,1.2-2.1,2.2-3.2,2.9c-0.1,0.1-0.2,0.1-0.3,0.2
		c-0.5,0.3-0.9,0.5-1.4,0.7c-0.4-0.2-0.7-0.5-1-0.7c-0.1,0-0.1-0.1-0.2-0.1c-0.2-0.2-0.3-0.3-0.4-0.5c-0.1-0.1-0.2-0.3-0.3-0.5
		c1.5-0.5,3-1.3,4.4-2.5C184.3,426.2,185.1,426.3,185.9,426.5z"/>
	<path id="path155" inkscape:connector-curvature="0" class="st3" d="M185.6,431.4c-0.2,0-0.3,0-0.5,0c-1.1-0.1-2-0.2-2.8-0.5
		c0.6-0.3,1.2-0.7,1.7-1.1c0.1-0.1,0.1-0.1,0.2-0.2c1-0.8,2-1.7,2.9-2.9l0.4,0.1c0.3,0.1,0.6,0.1,0.8,0.2c-0.3,0.9-0.8,1.7-1.2,2.5
		c0,0-0.1,0.1-0.1,0.1C186.6,430.2,186.1,430.8,185.6,431.4z"/>
	<path id="path157" inkscape:connector-curvature="0" class="st3" d="M188.2,429.6c0.4-0.7,0.8-1.5,1.1-2.4c0.5,0.1,1,0.2,1.5,0.3
		c0.1,0.4,0.3,1.2,0,2c0,0,0,0,0,0.1c-0.1,0.2-0.1,0.3-0.2,0.4c-0.6,0.8-1.8,1.3-3.6,1.4c0.4-0.5,0.8-1.1,1.2-1.7
		C188.2,429.6,188.2,429.6,188.2,429.6z"/>
	<path id="path159" inkscape:connector-curvature="0" class="st3" d="M196.3,428.5l-0.2,0c-0.8-0.2-1.6-0.4-2.3-0.6l-0.1,0
		c-0.4-0.1-0.8-0.2-1.2-0.4c-0.1,0-0.1,0-0.2,0l-0.3-0.1l0.1,0.3c0.1,0.7,0.1,1.3,0,1.9c-0.1,0.4-0.3,0.8-0.5,1.1
		c-0.5,0.8-1.4,1.3-2.6,1.6l-0.1,0l0,0.1c-0.2,1.9-0.3,4.2-0.2,5l0,0.2h2.7l0.1-2l0,0c-0.7-2.3,2.2-4.8,2.6-5
		c0.1-0.1,0.2-0.1,0.3-0.1c0.7,0.1,1.2,0,1.6-0.3c0.1-0.1,0.2-0.3,0.3-0.5c0.1-0.3,0.2-0.6,0.1-1L196.3,428.5L196.3,428.5z
		 M195.7,429.5C195.7,429.5,195.7,429.5,195.7,429.5c-0.1,0.2-0.1,0.3-0.2,0.4c-0.2,0.2-0.6,0.3-1.2,0.2c-0.2,0-0.4,0-0.6,0.2
		c-0.4,0.3-3.5,2.9-2.7,5.5l-0.1,1.5H189c-0.1-0.8,0-2.6,0.2-4.6c1.2-0.3,2.1-0.9,2.7-1.7c0.3-0.4,0.4-0.8,0.5-1.2c0,0,0,0,0-0.1
		c0.1-0.5,0.1-1.1,0.1-1.7c0.4,0.1,0.7,0.2,1,0.3l0.1,0c0.7,0.2,1.4,0.4,2.2,0.6C195.8,429,195.8,429.3,195.7,429.5z"/>
	<path id="path161" inkscape:connector-curvature="0" class="st3" d="M210.9,416c-0.7,0-1.2,0.6-1.2,1.2c0,0.7,0.6,1.2,1.2,1.2
		c0.7,0,1.2-0.6,1.2-1.2C212.1,416.6,211.6,416,210.9,416z M210.9,418.1c-0.5,0-0.8-0.4-0.8-0.8c0-0.5,0.4-0.8,0.8-0.8
		c0.4,0,0.8,0.4,0.8,0.8C211.7,417.7,211.3,418.1,210.9,418.1z"/>
	<path id="path163" inkscape:connector-curvature="0" class="st3" d="M216.5,414.4L216.5,414.4c-0.1-0.2-0.1-0.4-0.2-0.5
		c-0.7-2-1.8-3.8-3.3-5.4c-3.6-3.7-9.5-5.8-16.2-5.8c-2.3,0-4.5,0.3-6.7,0.7l-0.2,0l0.7,3.2h3.4l0-0.1c0.4-1.2,1.5-2,2.7-2
		c1.6,0,2.9,1.3,2.9,2.9c0,0.4-0.1,0.8-0.2,1.1c-0.5,1-1.5,1.7-2.6,1.7c-1.1,0-2.1-0.7-2.6-1.7l0-0.1c0,0,0,0,0-0.1l-0.1-0.1h-4.8
		l-0.1-0.7l-0.8-3.7l-0.2,0.1c-3.3,1-6,2.6-8,4.5c-0.5,0.5-1,1.1-1.5,1.7c-0.2,0.3-0.5,0.7-0.7,1.1c-0.4,0.9-0.8,1.7-1.2,2.5
		c-0.3,0.7-0.5,1.3-0.7,1.9l-0.1,0.2l10.2,5.2l3.7,0l0.1-0.1c0.4-1.1,1.5-1.9,2.7-1.9c1.6,0,2.9,1.3,2.9,2.9c0,0.9-0.4,1.7-1.1,2.2
		c-1,0.8-2.5,0.8-3.5,0c-0.4-0.3-0.7-0.8-0.9-1.3l-0.1-0.1h-3.9l-0.3-0.1l-10.1-5.1l-0.1,0.3c-0.4,1.8-0.3,3.3,0.3,4.4
		c0.6,1.2,1.5,1.6,1.9,1.7l0.1,0c0.2,0,1.6,0.3,3.4,0.6c6,1.1,10,1.9,11.4,2.3c0.4,0.1,0.9,0.3,1.3,0.4l0.1,0
		c1.5,0.5,2.9,0.9,4.9,0.9c0.7,0,1.4-0.1,2.2-0.2l0.2,0l-2.1-8.3l-6.1-4.2H190l0,0.1c-0.4,1.2-1.5,2-2.7,2c-1.6,0-2.9-1.3-2.9-2.9
		c0-0.2,0-0.4,0.1-0.7c0.3-1.3,1.5-2.2,2.8-2.2c1.2,0,2.2,0.7,2.7,1.9l0.1,0.1h3.6l4.2,2.9l2.9,2l2.2,8.7l0.1,0.2l0.3-0.1
		c1.2-0.3,2-0.9,2.4-1.7c0.2-0.3,0.3-0.6,0.3-1c0-0.2,0-0.4,0-0.5c0-0.2,0-0.3-0.1-0.5l0-0.1c0,0,0-0.1,0-0.1l0,0l-2.2-8.3l-0.1,0
		c-1-0.1-1.8-0.6-2.3-1.5c-0.2-0.4-0.3-0.9-0.3-1.3c0-1.6,1.3-2.9,2.9-2.9c1.6,0,2.9,1.3,2.9,2.9c0,0.5-0.1,0.9-0.3,1.3
		c-0.2,0.4-0.5,0.8-0.9,1l-0.1,0.1l2.2,8.5l0.5,0c1,0,1.9-0.1,2.8-0.2c0.3,0,0.6-0.1,0.8-0.1l0.2,0l-0.7-2.7l-0.1-0.2h-0.2
		c-1.6,0-2.9-1.3-2.9-2.9c0-1.6,1.3-2.9,2.9-2.9c1.6,0,2.9,1.3,2.9,2.9c0,0.8-0.4,1.6-1,2.2l-0.1,0.1l0.8,3.1l0.2-0.1
		c1.4-0.5,2.4-1.3,3-2.3C218.1,417.9,216.7,414.7,216.5,414.4z M213.6,422.1l-0.6-2.4c0.7-0.6,1.1-1.5,1.1-2.4
		c0-1.8-1.5-3.3-3.3-3.3c-1.8,0-3.3,1.5-3.3,3.3c0,1.8,1.4,3.2,3.1,3.3l0.5,2.1c-0.2,0-0.4,0.1-0.6,0.1c-0.9,0.1-1.8,0.2-2.7,0.2
		l-0.2,0l-2-7.9c0.4-0.3,0.7-0.7,0.9-1.1c0,0,0-0.1,0-0.1c0.2-0.5,0.3-0.9,0.3-1.4c0-1.8-1.5-3.3-3.3-3.3c-1.8,0-3.3,1.5-3.3,3.3
		c0,0.5,0.1,1,0.3,1.4c0,0,0,0.1,0,0.1c0.5,0.9,1.4,1.6,2.5,1.7l2.1,7.9c0,0.1,0,0.1,0,0.2l0,0c0,0.1,0.1,0.3,0.1,0.4c0,0,0,0,0,0
		c0,0.1,0,0.3,0,0.5c0,0.3-0.1,0.6-0.3,0.8c-0.4,0.7-1.1,1.1-2.1,1.4l-0.7-2.8l-1.5-5.9l-3-2.1l-3.5-2.4l-0.3-0.2l-0.5-0.4h-3.4
		c-0.5-1.2-1.7-2-3-2c-1.5,0-2.8,1-3.2,2.5c0,0,0,0,0,0.1c-0.1,0.3-0.1,0.5-0.1,0.7c0,1.8,1.5,3.3,3.3,3.3c1.3,0,2.5-0.8,3-2.1h2.6
		l3.6,2.5l2.2,1.6l1.1,4.4l0.8,3.3c-0.7,0.1-1.3,0.1-1.9,0.1c-1.9,0-3.3-0.4-4.8-0.9c-0.4-0.1-0.9-0.3-1.3-0.4
		c-1.4-0.4-4.9-1.1-10.3-2.1c-0.4-0.1-0.7-0.1-1.1-0.2c-1.9-0.3-3.2-0.6-3.4-0.6c-0.3-0.1-1.1-0.4-1.7-1.5c-0.4-0.9-0.5-2.3-0.3-3.8
		l9.7,4.9l0.3,0.1l3.7,0c0.2,0.4,0.5,0.8,0.8,1.2c0.1,0.1,0.1,0.1,0.2,0.2c1.2,0.9,2.9,0.9,4,0c0.1-0.1,0.1-0.1,0.2-0.2
		c0.7-0.6,1.1-1.5,1.1-2.4c0-1.8-1.5-3.3-3.3-3.3c-1.3,0-2.5,0.8-3,2h-3.3l-9.8-5c0.2-0.5,0.4-1.1,0.6-1.7c0,0,0-0.1,0-0.1
		c0.3-0.8,0.7-1.6,1.1-2.4c0.2-0.4,0.4-0.8,0.6-1.1c0.4-0.6,0.9-1.1,1.4-1.7c0.1-0.1,0.1-0.1,0.2-0.1c1.8-1.8,4.4-3.2,7.4-4.2
		l0.7,3.3l0.2,0.9l0,0.1h4.8c0,0,0,0,0,0c0.5,1.2,1.7,2,3,2c1.3,0,2.5-0.8,3-2c0,0,0-0.1,0-0.1c0.2-0.4,0.3-0.8,0.3-1.2
		c0-1.8-1.5-3.3-3.3-3.3c-1.4,0-2.6,0.8-3.1,2.1H191l-0.5-2.5c2.1-0.5,4.2-0.7,6.4-0.7c3.1,0,10.7,0.5,15.7,5.5
		c0.1,0.1,0.1,0.1,0.2,0.1c1.4,1.5,2.5,3.2,3.2,5.1c0,0,0,0.1,0,0.1c0.1,0.1,0.1,0.3,0.1,0.4c0,0.1,0,0.1,0.1,0.1
		c0.2,0.3,1.5,3.3,0.1,5.5C215.7,420.9,214.8,421.6,213.6,422.1z"/>
	<path id="path165" inkscape:connector-curvature="0" class="st3" d="M202.6,412.4c0,0.7,0.6,1.2,1.2,1.2c0.7,0,1.2-0.6,1.2-1.2
		c0-0.7-0.6-1.2-1.2-1.2C203.1,411.2,202.6,411.8,202.6,412.4z M203.8,413.3c-0.5,0-0.8-0.4-0.8-0.8c0-0.5,0.4-0.8,0.8-0.8
		c0.5,0,0.8,0.4,0.8,0.8C204.6,412.9,204.3,413.3,203.8,413.3z"/>
	<path id="path167" inkscape:connector-curvature="0" class="st3" d="M186.4,413.7c-0.3,0.2-0.4,0.6-0.4,0.9c0,0.7,0.6,1.2,1.2,1.2
		c0.7,0,1.2-0.6,1.2-1.2c0-0.3-0.1-0.7-0.4-0.9C187.6,413.3,186.9,413.3,186.4,413.7z"/>
	<path id="path169" inkscape:connector-curvature="0" class="st3" d="M194,421.9c0-0.7-0.6-1.2-1.2-1.2c-0.7,0-1.2,0.6-1.2,1.2
		c0,0.7,0.6,1.2,1.2,1.2C193.4,423.1,194,422.6,194,421.9z M192.7,421.1c0.5,0,0.8,0.4,0.8,0.8c0,0.5-0.4,0.8-0.8,0.8
		c-0.5,0-0.8-0.4-0.8-0.8C191.9,421.4,192.3,421.1,192.7,421.1z"/>
	<path id="path171" inkscape:connector-curvature="0" class="st3" d="M198,407.4c0-0.7-0.6-1.2-1.2-1.2s-1.2,0.6-1.2,1.2
		c0,0.7,0.6,1.2,1.2,1.2S198,408.1,198,407.4z M196.7,406.6c0.4,0,0.8,0.4,0.8,0.8c0,0.5-0.4,0.8-0.8,0.8c-0.4,0-0.8-0.4-0.8-0.8
		C195.9,406.9,196.3,406.6,196.7,406.6z"/>
</g>
</svg>
