<?xml version="1.0" encoding="utf-8"?>
<!-- Generator: Adobe Illustrator 19.0.0, SVG Export Plug-In . SVG Version: 6.00 Build 0)  -->
<svg version="1.1" id="Capa_1" xmlns="http://www.w3.org/2000/svg" xmlns:xlink="http://www.w3.org/1999/xlink" x="0px" y="0px"
	 viewBox="0 0 612 1008" style="enable-background:new 0 0 612 1008;" xml:space="preserve">
<style type="text/css">
	.st0{fill:none;stroke:#000000;}
	.st1{fill:none;stroke:#000000;stroke-miterlimit:10;}
	.st2{fill:none;stroke:#212120;stroke-miterlimit:10;}
	.st3{fill:#FFFFFF;stroke:#212120;stroke-miterlimit:10;}
	.st4{fill:#BF0411;}
	.st5{fill:none;stroke:#55973D;}
	.st6{fill:none;stroke:#BF0411;}
</style>
<g id="XMLID_1_">
	<g id="XMLID_136_">
		<path id="XMLID_137_" class="st0" d="M372.4,990.4l-15.4-3l-5.5-3.3l-4.5-4.9l-3.7-6.1l-3.1-7.8l-1.9-7.4l-1.2-8.4l-0.4-8.4l0.5-9
			l1.3-8.4l1.7-6.5l-1.3,0.8l-4.2,3.1l-4.1,3.7l-3.7,4.1l-3.1,4.2l-2.4,4.2l-1.6,3.9l-0.8,3.4l-0.1,2.5l0.4,1.4l-10.1,24.4l-8.7-13
			l-1.5-6.2l0.2-6.7l1.7-6.9l3.1-7.4l4.3-7.3l4.8-6.5l5.8-6.4l6.5-5.8l6.9-5l5.9-3.4l-1.5-0.4l-5.2-0.8l-5.5-0.3l-5.5,0.3L315,898
			l-4.7,1.3l-3.9,1.6l-2.9,1.8l-1.8,1.7l-0.8,1.3l-24.4,10.1l3-15.4l3.3-5.5l4.9-4.6l6.1-3.7l7.4-3l7.8-2.1l8.4-1.2l8.4-0.4l9,0.5
			l8.4,1.3l6.5,1.8l-0.8-1.4l-3.1-4.2l-3.7-4.1l-4.1-3.7l-4.2-3.1l-4.2-2.4l-3.9-1.6l-3.4-0.8l-2.5-0.1l-1.4,0.3l-24.4-10.1l13-8.7
			l6.2-1.5l6.7,0.2l6.9,1.7l7.4,3.1l7.3,4.3l6.5,4.8l6.4,5.8l5.8,6.5l5,6.9l3.4,5.9l0.4-1.5l0.8-5.2l0.3-5.5l-0.3-5.8l-0.7-4.9
			l-1.3-4.7l-1.6-3.9l-1.8-2.9l-1.7-1.8l-1.3-0.8l-10.1-24.4l15.4,3l5.5,3.3l4.5,4.9l3.7,6.1l3,7.4l2,7.8l1.2,8.4l0.4,8.4l-0.5,9
			l-1.3,8.4l-1.7,6.5l1.3-0.8l4.2-3.1l4.1-3.7l3.7-4.1l3.1-4.2l2.4-4.2l1.6-3.9l0.8-3.4l0.1-2.5l-0.4-1.4l10.1-24.4l8.7,13l1.5,6.2
			l-0.2,6.7l-1.7,6.9l-3.1,7.4l-4.3,7.3l-4.8,6.5l-5.8,6.4l-6.5,5.8l-6.9,5l-5.9,3.4l1.5,0.4l5.2,0.8l5.5,0.3l5.5-0.3l5.2-0.8
			l4.7-1.3l3.9-1.6l2.9-1.8l1.8-1.7l0.8-1.3l24.4-10.1l-3,15.4l-3.3,5.5l-4.9,4.5l-6.1,3.7l-7.4,3l-7.8,2l-8.4,1.2l-8.4,0.4l-9-0.5
			l-8.4-1.3l-6.5-1.7l0.8,1.3l3.1,4.2l3.7,4.1l4.1,3.7l4.2,3.1l4.2,2.4l3.9,1.6l3.4,0.8l2.5,0.1l1.4-0.4l24.4,10.1l-13,8.7l-6.2,1.5
			l-6.7-0.2l-6.9-1.7l-7.4-3.1l-7.3-4.3l-6.5-4.8l-6.4-5.8l-5.8-6.5l-5-6.9L355,929l-0.4,1.5l-0.8,5.2l-0.3,5.5l0.3,5.5l0.8,5.2
			l1.3,4.7l1.8,4.2l1.6,2.7l1.7,1.8l1.3,0.8L372.4,990.4z"/>
	</g>
	<g id="XMLID_132_">
		<g id="XMLID_133_">
			<path id="XMLID_134_" class="st1" d="M368.4,910.1h-11.3L357,910c-1.2-1.4-1.8-3.1-1.8-4.9c0-1.8,0.6-3.5,1.8-4.9l0.1-0.1l11.3,0
				l0.1,0.1c1.2,1.4,1.8,3.1,1.8,4.9C370.3,906.9,369.6,908.6,368.4,910.1L368.4,910.1z"/>
		</g>
	</g>
	<g id="XMLID_129_">
		<path id="XMLID_130_" class="st0" d="M190.2,966l1.3-0.8l1.7-1.8l1.6-2.7l1.8-4.2l1.3-4.7l0.8-5.2l0.3-5.5l-0.3-5.5l-0.8-5.2
			l-0.4-1.5l-3.4,5.9l-5,6.9l-5.8,6.5l-6.4,5.8l-6.5,4.8l-7.3,4.3l-7.4,3.1l-6.9,1.7l-6.7,0.2l-6.2-1.5l-13-8.7l24.4-10.1l1.4,0.4
			l2.5-0.1l3.4-0.8l3.9-1.6l4.2-2.4l4.2-3.1l4.1-3.7l3.7-4.1l3.1-4.2l0.8-1.3l-6.5,1.7l-8.4,1.3l-9,0.5l-8.4-0.4l-8.4-1.2l-7.8-2
			l-7.4-3l-6.1-3.7l-4.9-4.5l-3.3-5.5l-3-15.4l24.4,10.1l0.8,1.3l1.8,1.7l2.9,1.8l3.9,1.6l4.7,1.3l5.2,0.8l5.5,0.3l5.5-0.3l5.2-0.8
			l1.5-0.4l-5.9-3.4l-6.9-5l-6.5-5.8l-5.8-6.4l-4.8-6.5l-4.3-7.3l-3.1-7.4l-1.7-6.9l-0.2-6.7l1.5-6.2l8.7-13l10.1,24.4l-0.4,1.4
			l0.1,2.5l0.8,3.4l1.6,3.9l2.4,4.2l3.1,4.2l3.7,4.1l4.1,3.7l4.2,3.1l1.3,0.8l-1.7-6.5l-1.3-8.4l-0.5-9l0.4-8.4l1.2-8.4l2-7.8l3-7.4
			l3.7-6.1l4.5-4.9l5.5-3.3l15.4-3l-10.1,24.4L190,845l-1.7,1.8l-1.8,2.9l-1.6,3.9l-1.3,4.7l-0.7,4.9l-0.3,5.8l0.3,5.5l0.8,5.2
			l0.4,1.5l3.4-5.9l5-6.9l5.8-6.5l6.4-5.8l6.5-4.8l7.3-4.3l7.4-3.1l6.9-1.7l6.7-0.2l6.2,1.5l13,8.7l-24.4,10.1l-1.4-0.3l-2.5,0.1
			l-3.4,0.8l-3.9,1.6l-4.2,2.4l-4.2,3.1l-4.1,3.7l-3.7,4.1l-3.1,4.2l-0.8,1.4l6.5-1.8l8.4-1.3l9-0.5l8.4,0.4l8.4,1.2l7.8,2.1l7.4,3
			l6.1,3.7l4.9,4.6l3.3,5.5l3,15.4l-24.4-10.1l-0.8-1.3l-1.8-1.7l-2.9-1.8l-3.9-1.6l-4.7-1.3l-5.2-0.8l-5.5-0.3l-5.5,0.3l-5.2,0.8
			l-1.5,0.4l5.9,3.4l6.9,5l6.5,5.8l5.8,6.4l4.8,6.5l4.3,7.3l3.1,7.4l1.7,6.9l0.2,6.7l-1.5,6.2l-8.7,13l-10.1-24.4l0.4-1.4l-0.1-2.5
			l-0.8-3.4l-1.6-3.9l-2.4-4.2l-3.1-4.2l-3.7-4.1l-4.1-3.7l-4.2-3.1l-1.3-0.8l1.7,6.5l1.3,8.4l0.5,9l-0.4,8.4l-1.2,8.4l-1.9,7.4
			l-3.1,7.8l-3.7,6.1L201,984l-5.5,3.3l-15.4,3L190.2,966z"/>
	</g>
	<g id="XMLID_125_">
		<g id="XMLID_126_">
			<path id="XMLID_127_" class="st1" d="M195.4,910.1h-11.3L184,910c-1.2-1.4-1.8-3.1-1.8-4.9c0-1.8,0.6-3.5,1.8-4.9l0.1-0.1l11.3,0
				l0.1,0.1c1.2,1.4,1.8,3.1,1.8,4.9C197.3,906.9,196.7,908.6,195.4,910.1L195.4,910.1z"/>
		</g>
	</g>
</g>
<g id="XMLID_177_">
	<path id="XMLID_172_" class="st0" d="M278.4,410.5l88.7,46.2l2-3.8l8.3,4.3l9.2-17.7l-8.3-4.3l2-3.8L291.7,385
		c-6.9-3.6-15.5-0.9-19.1,6l-0.1,0.3C268.8,398.3,271.5,406.9,278.4,410.5z"/>
	<g id="XMLID_16_">
		<g id="XMLID_15_">
			<g id="XMLID_11_">
				<path id="XMLID_13_" class="st2" d="M104.5,517.4c9-36.8,48.6-114.5,142.5-163.2"/>
			</g>
			<g id="XMLID_8_">
				<path id="XMLID_10_" class="st2" d="M247,327.6c-55.6,28.9-99.5,70.4-127.7,123.4c-13.6,25.7-21.1,49.3-25,66.3"/>
			</g>
			<g id="XMLID_12_">
				<path id="XMLID_14_" class="st2" d="M448,517.4c-9-36.8-48.6-114.5-142.5-163.2"/>
			</g>
			<g id="XMLID_4_">
				<path id="XMLID_9_" class="st2" d="M305.5,327.6c55.6,28.9,99.5,70.4,127.7,123.4c13.6,25.7,21.1,49.3,25,66.3"/>
			</g>
		</g>
		<g id="XMLID_2_">
			<path id="XMLID_7_" class="st3" d="M451.6,558.4"/>
			<path id="XMLID_3_" class="st3" d="M100.8,558.4"/>
			<circle id="XMLID_5_" class="st3" cx="455.8" cy="539.9" r="7.8"/>
			<circle id="XMLID_6_" class="st3" cx="96.7" cy="539.9" r="7.8"/>
		</g>
		<path id="XMLID_18_" class="st2" d="M100,558.6c0.3-0.1,0.6-0.1,0.9-0.2c8.7-2.2,14.2-10.5,13.4-19.1c-0.3-2.9-0.5-5.8-0.3-8.7
			c1.1-24.2,35.7-112.9,138.3-166.2l10.7-1.1c2.8-0.3,4.9-2.6,4.9-5.4v-23.3h16.8v23.3c0,2.8,2.1,5.1,4.9,5.4l10.7,1.1
			c102.7,53.3,137.3,141.9,138.3,166.2c0.1,2.9-0.1,5.8-0.3,8.7c-0.9,8.7,4.7,16.9,13.4,19.1c0.3,0.1,0.6,0.1,0.9,0.2
			c11,2.2,21.2-6.7,20.8-18c-0.8-26-30.4-152.7-166-223.1l1.5-17.2c0-9.3-7.6-16.9-16.9-16.9h-6.1c-3.1,0-5.8,2.8-5.8,5.9v19.2h-7.7
			v-19.2c0-3.1-2.7-5.9-5.8-5.9h-4.1c-9.3,0-16.9,7.6-16.9,16.9l1.5,17.2c-135.6,70.4-167.3,197.2-168,223.1
			C78.8,551.8,88.9,560.8,100,558.6z"/>
	</g>
	<path id="XMLID_174_" class="st0" d="M261.8,387.4l-0.2-0.3c-4.5-6.4-13.4-7.9-19.8-3.4l-3.9,2.8l4.8,6.9l-6.9,4.9l-4.8-6.9
		l-70.9,50l2.5,3.5l-8.4,6l11.5,16.3l8.4-6l2.5,3.5l81.8-57.7C264.8,402.6,266.4,393.8,261.8,387.4z"/>
</g>
<g id="XMLID_176_">
	<g id="XMLID_173_">
		<rect id="XMLID_170_" x="103.6" y="637.8" class="st0" width="19.4" height="7.7"/>
		<rect id="XMLID_169_" x="429.6" y="637.8" class="st0" width="19.4" height="7.7"/>
		<polygon id="XMLID_167_" class="st0" points="410.8,534.7 413.4,536.2 414.8,538.7 414.8,541.6 413.4,544.2 410.8,545.7 
			407.9,545.7 405.3,544.2 403.9,541.6 403.9,538.7 405.3,536.2 407.9,534.7 		"/>
		<polygon id="XMLID_166_" class="st0" points="346.9,609.6 349.2,610.2 350.9,611.9 351.5,614.1 350.9,616.1 350.9,616.4 
			349.2,618.1 346.9,618.7 344.7,618.1 343,616.4 342.9,616.1 342.4,614.1 343,611.9 344.7,610.2 		"/>
		<polygon id="XMLID_165_" class="st0" points="397.3,729.3 397.4,729.8 397.9,734.8 397.3,740.4 395.7,745.7 393.1,750.6 
			389.6,754.9 385.3,758.4 380.4,761 379.1,761.4 375.6,762.4 375.1,762.6 372.3,762.9 369.5,763.2 364,762.6 362.3,762.1 
			358.7,761 358.3,760.8 353.8,758.4 349.5,754.9 345.9,750.6 343.3,745.7 341.7,740.4 341.2,734.8 341.7,729.3 342.5,726.8 
			343.1,724.7 343.3,724 345.9,719.1 349.5,714.8 353.8,711.2 358.7,708.6 362.3,707.5 364,707 369.5,706.5 372.3,706.7 375.1,707 
			375.6,707.2 380.4,708.6 385.3,711.2 389.6,714.8 393.1,719.1 395.7,724 395.9,724.7 		"/>
		<polygon id="XMLID_164_" class="st0" points="445.9,666.8 445.6,667.1 443.8,668.9 441,669.6 438.2,668.9 436.4,667.1 
			436.1,666.8 435.5,664.6 435.3,664 436.1,661.1 438.2,659 441,658.3 443.8,659 445.9,661.1 446.7,664 446.5,664.6 		"/>
		<polygon id="XMLID_163_" class="st0" points="203.5,673.1 205.7,673.7 208,673.1 209.7,671.4 210.3,669.1 209.7,666.9 208,665.2 
			205.7,664.6 203.5,665.2 201.8,666.9 201.2,669.1 201.8,671.4 		"/>
		<polygon id="XMLID_162_" class="st0" points="371.4,520.3 369.5,520.1 364,520.6 362.3,521.2 358.7,522.3 358.3,522.5 
			353.8,524.9 349.5,528.4 345.9,532.7 343.3,537.6 341.7,542.9 341.2,548.4 341.7,554 343.3,559.3 345.9,564.2 346.9,565.3 
			349.5,568.5 353.8,572 358.7,574.6 362.3,575.7 364,576.2 369.5,576.8 371.4,576.6 372.8,576.5 375.1,576.2 375.6,576.1 
			380.4,574.6 385.3,572 389.6,568.5 392.1,565.3 393.1,564.2 395.7,559.3 397.3,554 397.9,548.4 397.3,542.9 397.1,542.1 
			395.7,537.6 393.1,532.7 389.6,528.4 385.3,524.9 380.4,522.3 375.6,520.8 375.1,520.6 372.8,520.4 		"/>
		<polygon id="XMLID_161_" class="st0" points="302.5,652.5 301.8,653.8 299.9,657.4 299.3,658.1 296.4,661.7 292.1,665.2 
			287.2,667.8 281.9,669.4 276.3,670 270.8,669.4 265.5,667.8 260.6,665.2 256.3,661.7 255.4,660.6 253.4,658.1 252.8,657.4 
			250.1,652.5 248.5,647.2 248.4,646.2 248,641.6 248.5,636.1 250.1,630.8 252.8,625.9 255.4,622.7 256.1,621.8 256.3,621.6 
			260.6,618.1 265.5,615.4 270.8,613.8 276.3,613.3 281.9,613.8 287.2,615.4 292.1,618.1 296.4,621.6 296.6,621.8 299.9,625.9 
			301.8,629.5 302.5,630.8 304.1,636.1 304.7,641.6 304.1,647.2 		"/>
		<polygon id="XMLID_160_" class="st0" points="180.4,510.1 178.9,512.6 176.3,514.1 173.4,514.1 170.9,512.6 169.4,510.1 
			169.4,507.1 170.9,504.6 173.4,503.1 176.3,503.1 178.9,504.6 180.4,507.1 		"/>
		<polygon id="XMLID_159_" class="st0" points="372.8,506.6 374.3,504.1 376.8,502.6 379.8,502.6 382.3,504.1 383.8,506.6 
			383.8,509.6 382.3,512.1 379.8,513.6 376.8,513.6 374.3,512.1 372.8,509.6 		"/>
		<polygon id="XMLID_158_" class="st0" points="201.8,616.4 203.5,618.1 205.7,618.7 208,618.1 209.7,616.4 209.7,616.1 
			210.3,614.1 209.7,611.9 208,610.2 205.7,609.6 203.5,610.2 201.8,611.9 201.2,614.1 201.7,616.1 		"/>
		<polygon id="XMLID_157_" class="st0" points="206.7,532.7 209.3,537.6 211,542.9 211.5,548.4 211,554 209.3,559.3 206.7,564.2 
			205.8,565.3 203.2,568.5 198.9,572 194,574.6 188.7,576.2 183.1,576.8 177.6,576.2 172.3,574.6 169.4,573.1 167.4,572 
			163.1,568.5 160.5,565.3 159.6,564.2 157,559.3 155.3,554 154.8,548.4 155.1,545.2 155.3,542.9 155.6,542.1 155.9,540.9 
			157,537.6 158.8,534.2 159.6,532.7 163.1,528.4 167.4,524.9 169.4,523.8 172.3,522.3 177.6,520.6 183.1,520.1 188.7,520.6 
			194,522.3 198.9,524.9 199,524.9 203.2,528.4 		"/>
		<polygon id="XMLID_156_" class="st0" points="278.6,565.1 280.3,563.4 280.9,561.1 280.3,558.9 278.6,557.2 276.3,556.6 
			274.1,557.2 272.4,558.9 271.8,561.1 272.4,563.4 274.1,565.1 276.3,565.7 		"/>
		<polygon id="XMLID_155_" class="st0" points="111.7,625 108.8,624.2 106.8,622.1 106,619.3 106.8,616.5 108.8,614.4 111.7,613.6 
			114.5,614.4 116.6,616.5 117.3,619.3 116.6,622.1 114.5,624.2 		"/>
		<polygon id="XMLID_154_" class="st0" points="376.3,780.1 373.8,778.7 372.3,776.1 372.3,773.2 373.8,770.6 376.3,769.2 
			379.3,769.2 381.8,770.6 383.3,773.2 383.3,776.1 381.8,778.7 379.3,780.1 		"/>
		<polygon id="XMLID_153_" class="st0" points="444.5,614.4 446.6,616.5 447.2,618.7 447.4,619.3 446.6,622.1 444.5,624.2 
			441.7,625 438.9,624.2 436.8,622.1 436,619.3 436.2,618.7 436.8,616.5 438.9,614.4 441.7,613.6 		"/>
		<polygon id="XMLID_152_" class="st0" points="211.5,734.8 211,740.4 209.3,745.7 206.7,750.6 203.2,754.9 199,758.3 198.9,758.4 
			194,761 188.7,762.6 183.1,763.2 181.3,763 177.6,762.6 172.3,761 168.9,759.2 167.4,758.4 163.1,754.9 159.6,750.6 158.5,748.6 
			157,745.7 156.6,744.4 155.3,740.4 155.1,737.6 154.8,734.8 155.3,729.8 155.3,729.3 156.7,724.7 157,724 159.6,719.1 
			163.1,714.8 167.4,711.2 168.9,710.4 172.3,708.6 177.6,707 181.3,706.7 183.1,706.5 188.7,707 194,708.6 198.9,711.2 
			203.2,714.8 206.7,719.1 209.3,724 209.6,724.7 211,729.3 		"/>
		<polygon id="XMLID_151_" class="st0" points="411.3,738.1 413.9,739.6 415.3,742.1 415.3,745.1 413.9,747.6 411.3,749.1 
			408.4,749.1 405.9,747.6 404.4,745.1 404.4,742.1 405.9,739.6 408.4,738.1 		"/>
		<polygon id="XMLID_150_" class="st0" points="111,669.6 108.1,668.9 106.4,667.1 106.1,666.8 105.3,664 106.1,661.1 108.1,659 
			111,658.3 113.8,659 115.9,661.1 116.6,664 115.9,666.8 115.5,667.1 113.8,668.9 		"/>
		<polygon id="XMLID_149_" class="st0" points="144.3,545.2 146.8,543.7 148.3,541.1 148.3,538.2 146.8,535.7 144.3,534.2 
			141.3,534.2 138.8,535.7 137.3,538.2 137.3,541.1 138.8,543.7 141.3,545.2 		"/>
		<polygon id="XMLID_168_" class="st0" points="180.4,510.1 178.9,512.6 176.3,514.1 173.4,514.1 170.9,512.6 169.4,510.1 
			169.4,507.1 170.9,504.6 173.4,503.1 176.3,503.1 178.9,504.6 180.4,507.1 		"/>
		<polygon id="XMLID_144_" class="st0" points="376.3,780.1 373.8,778.7 372.3,776.1 372.3,773.2 373.8,770.6 376.3,769.2 
			379.3,769.2 381.8,770.6 383.3,773.2 383.3,776.1 381.8,778.7 379.3,780.1 		"/>
		<polygon id="XMLID_139_" class="st0" points="411.3,738.1 413.9,739.6 415.3,742.1 415.3,745.1 413.9,747.6 411.3,749.1 
			408.4,749.1 405.9,747.6 404.4,745.1 404.4,742.1 405.9,739.6 408.4,738.1 		"/>
		<polygon id="XMLID_17_" class="st0" points="144.3,545.2 146.8,543.7 148.3,541.1 148.3,538.2 146.8,535.7 144.3,534.2 
			141.3,534.2 138.8,535.7 137.3,538.2 137.3,541.1 138.8,543.7 141.3,545.2 		"/>
		<polygon id="XMLID_148_" class="st0" points="137.8,741.6 139.3,739.1 141.8,737.6 144.8,737.6 147.3,739.1 148.8,741.6 
			148.8,744.6 147.3,747.1 144.8,748.6 141.8,748.6 139.3,747.1 137.8,744.6 		"/>
		<polygon id="XMLID_147_" class="st0" points="175.8,769.7 178.4,771.1 179.9,773.7 179.9,776.6 178.4,779.2 175.8,780.6 
			172.9,780.6 170.4,779.2 168.9,776.6 168.9,773.7 170.4,771.1 172.9,769.7 		"/>
		<polygon id="XMLID_146_" class="st0" points="349.2,673.1 350.9,671.4 351.5,669.1 350.9,666.9 349.2,665.2 346.9,664.6 
			344.7,665.2 343,666.9 342.4,669.1 343,671.4 344.7,673.1 346.9,673.7 		"/>
		<polygon id="XMLID_145_" class="st0" points="272.4,719.9 271.8,722.1 272.4,724.4 274.1,726.1 276.3,726.7 278.6,726.1 
			280.3,724.4 280.9,722.1 280.3,719.9 278.6,718.2 276.3,717.6 274.1,718.2 		"/>
		<g id="XMLID_85_">
			<path id="XMLID_122_" class="st4" d="M178,641.6l-2.1-0.1l-0.1,0c-0.2,0-0.5,0-0.7,0.1c-0.2,0-0.6-0.3-1.1-0.8
				c-0.1-0.9-0.4-1.8-1-2.4c-0.3-0.3-0.7-0.6-1.1-0.8c0-1.4-0.2-3-0.7-4.7c-0.5-1.8-1.4-3.1-2.8-3.8c-0.2-0.1-0.5-0.2-0.8-0.3
				c0-0.8-0.1-1.5-0.2-2.2c-0.4-3.5-1.7-5.9-3.9-7.2c-3.2-2-6.7-0.6-7.7-0.1c-2,0.6-3.8,1.6-5.4,3c-6.1,5.2-6.8,13.7-6.8,17.1
				c0,7.2,2.6,13.9,6.8,17.5c0.4,0.3,0.7,0.6,1.2,0.9c0.4,0.3,0.8,0.5,1.3,0.8c0.9,0.5,1.9,0.9,2.8,1.3c2.3,0.9,4.2,1.4,6,1.4
				c1.2,0,2.3-0.2,3.3-0.7c0.8-0.4,1.5-0.9,2.1-1.6c1.2,0,2.9-0.3,4.6-1.4c0.1,0,0.1-0.1,0.2-0.1c2-1.5,3.2-4,3.4-7.3
				c0-0.2,0-0.4,0-0.5c2.4,0.1,3.7-0.2,4.5-1c0.4-0.4,0.7-1,0.7-1.6V644C180.3,642.8,179.3,641.7,178,641.6z M179.8,646.9
				c0,0.5-0.2,1-0.5,1.3c-0.5,0.5-1.4,1-4.3,0.8l-0.3,0l0,0.3c0,0.3,0,0.5,0,0.8c-0.2,3.2-1.3,5.5-3.2,7c-0.1,0-0.1,0.1-0.2,0.1
				c-1.6,1.1-3.3,1.3-4.4,1.3l-0.1,0l-0.1,0.1c-0.5,0.7-1.2,1.2-1.9,1.6c-2.2,1-5.1,0.8-8.8-0.7c-0.9-0.4-1.8-0.8-2.8-1.3
				c-0.4-0.2-0.8-0.4-1.2-0.7c-0.4-0.3-0.8-0.6-1.1-0.9c-4.1-3.5-6.6-10.1-6.6-17.1c0-3.3,0.6-11.6,6.6-16.7
				c1.5-1.3,3.3-2.3,5.2-2.9l0,0c0.6-0.3,2.1-0.9,3.8-0.9c1.1,0,2.3,0.2,3.5,1c2,1.2,3.2,3.5,3.6,6.8c0.1,0.7,0.1,1.5,0.2,2.3l0,0.2
				l0.2,0.1c0.3,0.1,0.6,0.2,0.9,0.4c1.2,0.7,2.1,1.8,2.5,3.5c0.5,1.7,0.7,3.3,0.7,4.7l0,0.2l0.2,0.1c0.4,0.2,0.8,0.4,1.1,0.8
				c0.5,0.6,0.9,1.3,0.9,2.2l0,0.1l0.1,0.1c0.6,0.5,1.2,0.9,1.5,1l0.1,0l0.1,0c0.2-0.1,0.4-0.1,0.6-0.1l2.2,0.1
				c1,0.1,1.8,0.9,1.8,1.9V646.9z"/>
			<path id="XMLID_119_" class="st4" d="M178,643l-2.1-0.1c-0.1,0-0.2,0-0.4,0.1c-0.7,0.3-1.9-0.6-2.9-1.5c0.1-0.8-0.1-1.5-0.6-2
				c-0.3-0.4-0.8-0.6-1.4-0.7c0,0-0.1,0-0.2,0c0.1-1.6,0-3.4-0.6-5.3c-0.4-1.4-1.1-2.4-2.1-3c-0.4-0.2-0.9-0.4-1.4-0.4
				c0,0,0,0-0.1,0c0-1.2,0-2.2-0.2-3.1c-0.4-3-1.5-5.1-3.2-6.2c-2.8-1.7-6.1-0.2-6.5,0l-0.1,0c-1.8,0.6-3.5,1.5-4.9,2.7
				c-3.9,3.4-6.3,9.4-6.3,16.1c0,6.8,2.4,13.1,6.3,16.5c0.3,0.3,0.7,0.5,1.1,0.8c0.4,0.3,0.7,0.5,1.1,0.7c0.9,0.5,1.8,0.9,2.7,1.2
				c2.1,0.8,3.9,1.3,5.5,1.3c1,0,1.9-0.2,2.7-0.5c0.8-0.4,1.4-0.9,1.8-1.6c0-0.1,0.1-0.1,0.1-0.2c1,0.1,2.9,0,4.5-1.2l0.2-0.1
				c1.7-1.3,2.7-3.4,2.8-6.3c0-0.7,0-1.4,0-2c4,0.4,4.6-0.2,4.9-0.5c0.2-0.2,0.3-0.4,0.3-0.7V644C178.9,643.5,178.5,643.1,178,643z
				 M178.4,646.9c0,0.1,0,0.3-0.1,0.4c-0.6,0.6-2.9,0.5-4.8,0.3l-0.3,0l0,0.3c0.1,0.7,0.1,1.4,0,2.2c-0.2,2.8-1.1,4.8-2.6,5.9
				l-0.1,0.1c-1.6,1.1-3.4,1.1-4.3,1.1l-0.2,0l-0.1,0.2c0,0.1-0.1,0.2-0.2,0.3c-0.4,0.6-0.9,1.1-1.6,1.4c-1.8,0.8-4.4,0.6-7.7-0.7
				c-0.9-0.3-1.8-0.8-2.7-1.2c-0.4-0.2-0.7-0.4-1.1-0.6c-0.4-0.3-0.7-0.5-1-0.8c-3.8-3.3-6.1-9.4-6.1-16.1c0-6.5,2.3-12.4,6.1-15.7
				c1.4-1.2,3-2.1,4.7-2.6l0.1,0c0.2-0.1,1.6-0.8,3.3-0.8c0.9,0,1.9,0.2,2.7,0.7l0,0c1.6,1,2.6,3,3,5.8c0.1,1,0.2,2.1,0.1,3.3l0,0.3
				l0.3,0c0.1,0,0.2,0,0.3,0c0.4,0,0.9,0.2,1.2,0.4c0.9,0.5,1.5,1.4,1.9,2.7c0.5,2,0.7,3.7,0.5,5.4l0,0.2l0.2,0c0.1,0,0.2,0,0.3,0.1
				c0.5,0.1,0.8,0.3,1.1,0.6c0.4,0.4,0.6,1,0.5,1.8l0,0.1l0.1,0.1c0.3,0.4,2.1,2.2,3.5,1.7c0.1,0,0.1,0,0.2,0l2.1,0.1
				c0.3,0,0.5,0.2,0.5,0.5V646.9z"/>
			<path id="XMLID_116_" class="st4" d="M167.3,652.4l-0.3-0.5l-0.1,0.6c-0.3,1.4-0.5,2.6-0.6,3.3l-0.1,0.3l0.3,0c0.1,0,0.2,0,0.4,0
				c0.5,0,1.2-0.1,1.9-0.3l0.2-0.1l-0.1-0.2C168.5,654.5,168,653.4,167.3,652.4z M166.8,655.6c0.1-0.6,0.3-1.5,0.4-2.4
				c0.5,0.7,0.8,1.5,1.1,2.2C167.8,655.6,167.2,655.6,166.8,655.6z"/>
			<path id="XMLID_113_" class="st4" d="M170.7,652.1L170.7,652.1c-0.1-0.2-0.1-0.2-0.2-0.3c-0.7-1-1.6-2-2.6-3l-0.3-0.3l-0.1,0.4
				c-0.1,0.7-0.3,1.4-0.4,2.1l0,0.1l0.1,0.1c1,1.3,1.7,2.6,2.2,3.9l0.1,0.3l0.3-0.2c0.2-0.1,0.3-0.2,0.4-0.3
				c0.1-0.1,0.3-0.2,0.5-0.4c0,0,0.1-0.1,0.1-0.1l0-0.1c0.3-0.3,0.5-0.6,0.7-0.9l0.1-0.1l0-0.1C171.2,653,171,652.6,170.7,652.1z
				 M170.3,654.2L170.3,654.2c-0.1,0.1-0.1,0.1-0.1,0.1c-0.1,0.1-0.3,0.3-0.4,0.4c0,0-0.1,0.1-0.1,0.1c-0.5-1.2-1.2-2.4-2.1-3.6
				c0.1-0.5,0.2-1.1,0.3-1.6c0.9,0.8,1.6,1.7,2.2,2.6c0,0.1,0.1,0.1,0.1,0.2l0.1,0.1c0.2,0.4,0.4,0.8,0.6,1.1
				C170.7,653.8,170.5,654,170.3,654.2z"/>
			<path id="XMLID_110_" class="st4" d="M170.6,647.9L170.6,647.9c-0.8-0.5-1.5-0.8-2.3-1.2l-0.3-0.1l-0.3,1.5l0.1,0.1
				c1,0.8,1.8,1.6,2.5,2.5l0.1,0.2c0.4,0.5,0.7,1,1,1.5l0.3,0.5l0.2-0.6c0.3-0.8,0.4-1.6,0.5-2.6l0-0.4l-0.2-0.1l0.3,0l0-0.1
				l-0.1-0.1C171.8,648.8,171.3,648.3,170.6,647.9z M171.8,649.8c0,0.7-0.1,1.3-0.3,1.9c-0.2-0.4-0.5-0.7-0.7-1.1l-0.2-0.2
				c-0.7-0.9-1.5-1.7-2.5-2.5l0.1-0.7c0.7,0.3,1.3,0.6,2,1l0.1,0c0.6,0.4,1.1,0.8,1.5,1.2L171.8,649.8z"/>
			<path id="XMLID_107_" class="st4" d="M171,644.7c-0.1-0.1-0.3-0.2-0.4-0.2l-0.1,0.2l0-0.3c-0.7-0.3-1.5-0.1-2,0l-0.1,0l0,0.1
				c-0.1,0.4-0.2,0.9-0.3,1.3l0,0.2l0.2,0.1c0.7,0.3,1.4,0.6,2.1,1l0.1,0c0.6,0.3,1,0.7,1.5,1l0.4,0.4l0-0.6
				C172.2,646.5,171.8,645.3,171,644.7z M170.7,646.9L170.7,646.9l-0.2,0.2L170.7,646.9c-0.7-0.4-1.4-0.7-2.1-1
				c0.1-0.3,0.1-0.7,0.2-1c0.4-0.1,1-0.2,1.5,0l0.1,0c0.1,0,0.2,0.1,0.3,0.2c0.6,0.4,0.9,1.3,1.1,2.5
				C171.5,647.4,171.1,647.1,170.7,646.9z"/>
			<path id="XMLID_104_" class="st4" d="M175.8,644c-1.9,0.6-4-1.9-4.2-2.2c0.1-0.7,0-1.3-0.3-1.6c-0.1-0.1-0.3-0.3-0.6-0.3
				c-0.3-0.1-0.6-0.2-0.9-0.1l-0.3,0l-0.1,0.3c-0.2,0.7-0.4,1.4-0.6,2.1l0,0.1c-0.1,0.3-0.2,0.7-0.3,1.1l-0.3,0.8l0.7-0.1
				c0.6-0.1,1.1-0.1,1.6,0c0.3,0.1,0.6,0.2,0.9,0.4c0.6,0.4,1.1,1.2,1.3,2.2l0.1,0.3l0.3,0c1.1,0.1,2.4,0.2,3.4,0.2
				c0.5,0,0.9,0,1.2-0.1l0.3-0.1v-2.8l-2-0.1L175.8,644z M177,644.9v1.3c-0.7,0.1-2.2,0-3.6-0.2c-0.3-1.1-0.9-1.9-1.6-2.4
				c-0.4-0.2-0.7-0.4-1.2-0.5c-0.4-0.1-0.8-0.1-1.2-0.1c0-0.2,0.1-0.3,0.1-0.5l0.1-0.2c0.2-0.6,0.4-1.1,0.5-1.8c0.1,0,0.2,0,0.3,0.1
				l0.1-0.2l0,0.3c0.1,0,0.2,0.1,0.2,0.1c0.1,0.1,0.2,0.4,0.1,0.8c-0.1,0.3,0,0.6,0.2,0.8c0.3,0.3,2.7,3.2,5.1,2.5L177,644.9z"/>
			<path id="XMLID_101_" class="st4" d="M158.2,626.8c0,0.7,0.6,1.4,1.4,1.4c0.7,0,1.4-0.6,1.4-1.4c0-0.7-0.6-1.4-1.4-1.4
				C158.8,625.5,158.2,626.1,158.2,626.8z M160,626.8c0,0.3-0.2,0.5-0.5,0.5c-0.3,0-0.5-0.2-0.5-0.5c0-0.3,0.2-0.5,0.5-0.5
				C159.8,626.4,160,626.6,160,626.8z"/>
			<path id="XMLID_98_" class="st4" d="M168.3,643.2c0.1-0.3,0.2-0.6,0.3-1l0.1-0.2c0.4-1.4,0.8-2.7,0.8-4.4c0-0.6-0.1-1.3-0.2-2
				l-0.1-0.5l-7.7,2l-3.9,5.6v3l0.3,0.1c0.9,0.3,1.6,1.2,1.6,2.2c0,1.3-1,2.3-2.3,2.3c-0.2,0-0.3,0-0.6-0.1c-1-0.3-1.7-1.2-1.7-2.2
				c0-1,0.6-1.8,1.5-2.2l0.3-0.1v-3.3l2.5-3.6l1.8-2.5l7.7-2l0.3-0.2l-0.1-0.5c-0.3-1.1-0.9-1.9-1.6-2.3c-0.3-0.2-0.6-0.3-1-0.3
				c-0.2,0-0.4,0-0.5,0c-0.2,0-0.3,0-0.5,0.1l-0.1,0l0,0l0,0l-7.6,2l0,0.3c-0.1,0.8-0.5,1.5-1.2,1.8c-0.4,0.2-0.7,0.3-1.1,0.3
				c-1.3,0-2.3-1-2.3-2.3c0-1.3,1-2.3,2.3-2.3c0.4,0,0.7,0.1,1.1,0.3c0.3,0.2,0.6,0.4,0.8,0.7l0.2,0.3l7.9-2.1l0-0.6
				c0-0.9,0-1.7-0.1-2.5c0-0.3-0.1-0.5-0.1-0.7l-0.1-0.5l-2.7,0.7l-0.3,0.1v0.3c0,1.3-1,2.3-2.3,2.3c-1.3,0-2.3-1-2.3-2.3
				c0-1.3,1-2.3,2.3-2.3c0.7,0,1.3,0.3,1.8,0.8l0.2,0.2l3.2-0.8l-0.2-0.5c-0.5-1.3-1.2-2.3-2.1-2.8c-2.3-1.4-5.2-0.1-5.5,0.1l0,0
				c-0.1,0-0.3,0.1-0.4,0.1c-1.9,0.6-3.5,1.7-4.9,3c-3.3,3.3-5.3,8.6-5.3,14.7c0,2,0.2,4.1,0.7,6l0.1,0.4l3.3-0.7v-3.4l-0.3-0.1
				c-1-0.3-1.6-1.2-1.6-2.2c0-1.3,1-2.3,2.3-2.3c0.3,0,0.6,0.1,0.9,0.2c0.8,0.4,1.4,1.2,1.4,2.1c0,0.9-0.5,1.7-1.4,2.1l-0.4,0.1v4.2
				l-4,0.9l0.1,0.5c0.9,3,2.3,5.5,4.1,7.2c0.5,0.5,1,0.9,1.6,1.3c0.3,0.2,0.6,0.4,1,0.6c0.8,0.4,1.5,0.7,2.2,1
				c0.6,0.2,1.2,0.5,1.7,0.6l0.4,0.1l4.7-9.3l0-3.6l-0.3-0.1c-0.9-0.3-1.5-1.2-1.5-2.2c0-1.3,1-2.3,2.3-2.3c0.7,0,1.4,0.3,1.8,0.9
				c0.7,0.8,0.7,2,0,2.8c-0.3,0.3-0.6,0.6-1,0.7l-0.3,0.1v3.7l-4.8,9.5l0.6,0.1c0.7,0.1,1.3,0.2,1.9,0.2c0.9,0,1.6-0.1,2.2-0.4
				c1.2-0.5,1.6-1.5,1.7-1.8l0-0.1c0-0.1,0.3-1.4,0.6-3C167.2,648.1,167.9,644.5,168.3,643.2z M165.5,652.2l-0.2,1
				c-0.3,1.6-0.5,2.8-0.5,3c-0.1,0.2-0.3,0.9-1.2,1.3c-0.7,0.3-1.7,0.4-2.9,0.3l4.2-8.4l0.1-0.3l0-3.3c0.4-0.2,0.7-0.4,1-0.8
				c0,0,0.1-0.1,0.1-0.1c0.9-1.1,0.9-2.8,0-3.9c-0.1-0.1-0.1-0.1-0.2-0.2c-0.6-0.7-1.4-1-2.3-1c-1.8,0-3.2,1.4-3.2,3.2
				c0,1.2,0.7,2.3,1.8,2.9v2.7l-4.3,8.5c-0.4-0.1-0.9-0.3-1.3-0.5l-0.1,0.2l0-0.3c-0.7-0.3-1.4-0.6-2.1-1c-0.4-0.2-0.7-0.4-0.9-0.6
				c-0.5-0.3-1-0.8-1.5-1.2l-0.1-0.1c-1.5-1.6-2.8-3.7-3.6-6.3l2.6-0.6l1.1-0.2v-4.4c1.1-0.5,1.8-1.6,1.8-2.8c0-1.3-0.7-2.4-1.9-2.9
				c0,0,0,0-0.1,0c-0.4-0.2-0.8-0.2-1.2-0.2c-1.8,0-3.2,1.4-3.2,3.2c0,1.2,0.8,2.4,1.9,2.9v2.1l-1.8,0.4c-0.4-1.8-0.6-3.6-0.6-5.4
				c0-2.7,0.5-9.4,4.9-13.9l0.1-0.1c1.3-1.3,2.8-2.2,4.5-2.8l-0.1-0.2l0.2,0.2c0.1,0,0.3-0.1,0.3-0.1c0,0,0.1,0,0.2-0.1
				c0.4-0.2,2.8-1.2,4.7-0.1c0.7,0.4,1.2,1.1,1.6,1.9l-1.7,0.4c-0.6-0.6-1.4-1-2.2-1c-1.8,0-3.2,1.4-3.2,3.2c0,1.8,1.4,3.2,3.2,3.2
				c1.6,0,3-1.2,3.2-2.9l1.5-0.4c0,0.1,0,0.2,0,0.2c0.1,0.7,0.1,1.5,0.1,2.3l-6.7,1.7c-0.3-0.3-0.6-0.6-1-0.8l-0.1,0
				c-0.4-0.2-0.9-0.3-1.4-0.3c-1.8,0-3.2,1.4-3.2,3.2c0,2.2,2.3,4,4.6,2.8l0.1,0c0.8-0.5,1.4-1.3,1.6-2.2l6.9-1.8c0.1,0,0.2,0,0.3,0
				c0.1,0,0.2,0,0.4-0.1c0.1,0,0.2,0,0.4,0c0.2,0,0.5,0.1,0.7,0.2c0.5,0.3,0.8,0.8,1.1,1.5l-7.5,2l-4.6,6.6v3
				c-1.1,0.5-1.8,1.6-1.8,2.8c0,1.5,1,2.7,2.5,3.1c0.3,0.1,0.5,0.1,0.7,0.1c1.8,0,3.2-1.4,3.2-3.2c0-1.3-0.7-2.4-1.9-2.9V643
				l2.2-3.2l1.4-1.9l6.5-1.7c0.1,0.5,0.1,0.9,0.1,1.4c0,1.6-0.4,2.9-0.8,4.2c-0.1,0.4-0.2,0.8-0.4,1.2
				C167.1,644.2,166.4,647.3,165.5,652.2z"/>
			<path id="XMLID_95_" class="st4" d="M155.2,631.8c-0.7,0-1.4,0.6-1.4,1.4c0,0.7,0.6,1.4,1.4,1.4c0.7,0,1.4-0.6,1.4-1.4
				C156.6,632.4,155.9,631.8,155.2,631.8z M155.2,633.6c-0.3,0-0.5-0.2-0.5-0.5c0-0.3,0.2-0.5,0.5-0.5c0.3,0,0.5,0.2,0.5,0.5
				C155.7,633.4,155.5,633.6,155.2,633.6z"/>
			<path id="XMLID_92_" class="st4" d="M156.2,648.9c0.3,0.3,0.6,0.4,1,0.4c0.7,0,1.4-0.6,1.4-1.4c0-0.7-0.6-1.4-1.4-1.4
				c-0.4,0-0.7,0.2-1,0.4C155.7,647.5,155.7,648.4,156.2,648.9z M156.5,647.4c0.2-0.2,0.4-0.3,0.6-0.3c0.5,0,0.9,0.4,0.9,0.9
				c0,0.5-0.4,0.9-0.9,0.9c-0.2,0-0.5-0.1-0.6-0.3l0,0C156.2,648.2,156.2,647.7,156.5,647.4z"/>
			<path id="XMLID_89_" class="st4" d="M165,643.1c0-0.7-0.6-1.4-1.4-1.4c-0.7,0-1.4,0.6-1.4,1.4c0,0.7,0.6,1.4,1.4,1.4
				C164.4,644.4,165,643.8,165,643.1z M163.6,643.5c-0.3,0-0.5-0.2-0.5-0.5c0-0.3,0.2-0.5,0.5-0.5c0.3,0,0.5,0.2,0.5,0.5
				C164.1,643.3,163.9,643.5,163.6,643.5z"/>
			<path id="XMLID_86_" class="st4" d="M152,639.5c0-0.7-0.6-1.4-1.4-1.4c-0.7,0-1.4,0.6-1.4,1.4s0.6,1.4,1.4,1.4
				C151.4,640.8,152,640.2,152,639.5z M150.7,639.9c-0.3,0-0.5-0.2-0.5-0.5s0.2-0.5,0.5-0.5c0.3,0,0.5,0.2,0.5,0.5
				S150.9,639.9,150.7,639.9z"/>
		</g>
		<g id="XMLID_60_">
			<path id="XMLID_82_" class="st5" d="M406.7,613.6c1,1,1.4,2.1,1.4,3.7c0,1.8-0.6,2.9-1.7,3.5c-0.8,0.5-1.5,0.7-2.7,0.7
				c-1.2,0-3.2-0.3-5.9-0.9c-6.1-1.2-7.6-1.8-8.8-3.1c-1-1-1.4-2.1-1.4-3.7c0-1.8,0.6-2.9,1.7-3.5c0.8-0.5,1.5-0.6,2.7-0.6
				c1.2,0,3.2,0.3,5.9,0.8C404,611.8,405.5,612.3,406.7,613.6z M403.7,618.5c1,0,1.7-0.4,1.7-1.5c0-0.6-0.2-1-0.6-1.4
				c-0.7-0.7-2-1.1-7-2.1c-2.5-0.5-4.6-0.9-5.8-0.9c-1,0-1.7,0.4-1.7,1.5c0,0.6,0.2,1,0.6,1.4c0.7,0.7,2,1.1,7,2.1
				C400.4,618.2,402.5,618.5,403.7,618.5z"/>
			<path id="XMLID_78_" class="st5" d="M407.9,624.2v4.4c0,1.6-0.3,2.6-1.2,3.3c-0.6,0.5-1.5,0.7-2.4,0.7c-0.5,0-1.1-0.1-1.9-0.2
				c-1.5-0.3-2.5-0.6-3.4-1.6c-0.3-0.3-0.5-0.7-0.7-1.1c-0.1,0.4-0.4,0.7-0.7,0.9c-0.6,0.4-1.1,0.6-1.9,0.6c-0.6,0-1.3-0.1-2.1-0.2
				c-2.5-0.5-3.7-1.1-4.6-2c-0.9-1-1.1-2.1-1.1-4v-4.7L407.9,624.2z M390.6,625.2c0,1.7,0.8,2.4,3.2,2.9c0.6,0.1,1.1,0.2,1.5,0.2
				c1.3,0,1.8-0.6,1.8-1.8V625l-6.5-1.3V625.2z M399.6,626.8c0,1.6,0.8,2.3,2.8,2.7c0.5,0.1,0.9,0.2,1.3,0.2c1,0,1.6-0.4,1.6-1.7
				v-1.3l-5.6-1.1V626.8z"/>
			<path id="XMLID_76_" class="st5" d="M405.2,657.1V654l2.7,0.5v9.3l-2.7-0.5v-3.2l-17.3-3.4v-3L405.2,657.1z"/>
			<path id="XMLID_74_" class="st5" d="M407.9,665.5v3l-8.9-1.8l8.9,5.7v3.3l-8.3-5.5l-11.7,2.1v-3l8.5-1.5l-3.3-2.3l-5.1-1v-3
				L407.9,665.5z"/>
			<path id="XMLID_72_" class="st5" d="M407.9,678v3l-20-4v-3L407.9,678z"/>
			<path id="XMLID_69_" class="st5" d="M407.9,691.7l-2.7-0.5V688l-17.3-3.4h-1.4c-0.5,0.7-1.3,1.1-2.2,1.1c-1.5,0-2.6-1.2-2.6-2.6
				c0-1.5,1.2-2.6,2.6-2.6c0.9,0,1.7,0.5,2.2,1.1h1.4l17.3,3.4v-3.2l2.7,0.5V691.7z M385.7,683.1c0-0.7-0.6-1.4-1.4-1.4
				c-0.7,0-1.4,0.6-1.4,1.4c0,0.7,0.6,1.4,1.4,1.4C385.1,684.4,385.7,683.8,385.7,683.1z"/>
			<path id="XMLID_65_" class="st5" d="M407.9,605.4v-4.7h0v-1.5c0.7-0.5,1.2-1.3,1.2-2.2c0-1.4-1.1-2.6-2.6-2.6
				c-1.4,0-2.6,1.1-2.6,2.6c0,0.9,0.5,1.7,1.2,2.2v1l-17.3-3.5v3l8.3,1.7v1.7l-8.3,0.9v3l8.8-1.1c0.7,1.6,1.8,2.6,5.3,3.3
				c0.9,0.2,1.6,0.3,2.3,0.3C406.4,609.5,407.9,608.3,407.9,605.4z M405.3,597c0-0.7,0.6-1.3,1.3-1.3c0.7,0,1.3,0.6,1.3,1.3
				c0,0.7-0.6,1.3-1.3,1.3C405.8,598.3,405.3,597.7,405.3,597z M402,606.3c-2-0.4-3.2-1.1-3.2-2.6v-1.8l6.4,1.3v1.7
				c0,1.2-0.6,1.6-1.6,1.6C403.1,606.5,402.6,606.4,402,606.3z"/>
			<circle id="XMLID_64_" class="st5" cx="406.6" cy="652.1" r="1.3"/>
			<path id="XMLID_61_" class="st5" d="M405.3,650.1L405.3,650.1c0.5-0.5,1.8-0.7,2.4,0v-6.5c0-5.4-4.4-9.9-9.9-9.9
				c-0.8,0-1.6,0.1-2.4,0.3l-1.2-1.2l-1.8-0.3v1h0l1.1,1.1c-0.1,0.1-0.3,0.1-0.4,0.2l-1.4-1.4v-1l-1.7-0.3v2.1l1.6,1.6
				c-0.1,0.1-0.2,0.2-0.4,0.3l-1.9-1.9V632l-1.7-0.3v3.2l2.4,2.4c-1.4,1.7-2.2,3.9-2.2,6.2c0,5.4,4.4,9.9,9.9,9.9
				C400.8,653.4,403.5,652.1,405.3,650.1z M398.3,646.8l-0.5,0.8l-0.6,0.7l-0.7,0.6l-0.7,0.5l-0.8,0.5l-0.8,0.3l-0.8,0.2l-0.7,0
				l-0.7-0.2l-1.4-1l2.7-1.1l0.2,0l0.3,0l0.4-0.1l0.4-0.2l0.5-0.3l0.5-0.3l0.4-0.4l0.4-0.4l0.3-0.5l0.1-0.1l-0.7,0.2l-0.9,0.1
				l-1,0.1l-0.9,0l-0.9-0.1l-0.8-0.2l-0.9-0.3l-0.7-0.4l-0.5-0.5l-0.4-0.6l-0.3-1.7l2.7,1.1l0.1,0.1l0.2,0.2l0.3,0.2l0.5,0.2
				l0.5,0.1l0.6,0.1l0.6,0l0.6,0l0.6-0.1l0.2,0l-0.6-0.4l-0.7-0.5l-0.7-0.6l-0.6-0.7l-0.5-0.7l-0.5-0.8l-0.3-0.8L391,639l0-0.7
				l0.2-0.7l1-1.4l1.1,2.7l0,0.2l0,0.3l0.1,0.4l0.2,0.4l0.3,0.5l0.3,0.5l0.4,0.4l0.4,0.4l0.5,0.3l0.1,0.1l-0.2-0.7l-0.1-0.9l-0.1-1
				l0-0.9l0.1-0.9l0.2-0.9l0.3-0.8l0.4-0.7l0.5-0.5l0.6-0.4l1.7-0.3l-1.1,2.7l-0.1,0.1l-0.2,0.2l-0.2,0.3l-0.2,0.4l-0.1,0.5L397,639
				l0,0.6l0,0.6l0.1,0.6l0,0.2l0.4-0.6l0.5-0.8l0.6-0.7l0.7-0.6l0.7-0.5l0.8-0.5l0.8-0.3l0.8-0.2l0.7,0l0.7,0.2l1.4,1l-2.7,1.1
				l-0.2,0l-0.3,0l-0.4,0.1l-0.4,0.2l-0.5,0.3l-0.5,0.3l-0.4,0.4l-0.4,0.4l-0.3,0.5l-0.1,0.1l0.7-0.2l0.9-0.1l1-0.1l0.9,0l0.9,0.1
				l0.9,0.2l0.8,0.3l0.7,0.4l0.5,0.5l0.4,0.6l0.3,1.6l0,0.1l-2.6-1.1l-0.1-0.1l-0.2-0.2l-0.3-0.2l-0.4-0.2l-0.5-0.1l-0.5-0.1l-0.6,0
				l-0.6,0l-0.6,0.1l-0.2,0l0.6,0.4l0.8,0.5l0.7,0.6l0.6,0.7l0.5,0.7l0.5,0.8l0.3,0.8l0.2,0.8l0,0.7l-0.2,0.7l-1,1.4l-1.1-2.7l0-0.2
				l0-0.3l-0.1-0.4l-0.2-0.4l-0.3-0.5l-0.3-0.5l-0.4-0.4l-0.4-0.4l-0.5-0.3l-0.2-0.1l0.2,0.7l0.1,0.9l0.1,1l0,0.9l-0.1,0.9l-0.2,0.9
				l-0.3,0.8l-0.4,0.7l-0.5,0.5l-0.6,0.4l-1.7,0.3l1.1-2.7l0.1-0.1l0.2-0.2l0.2-0.3l0.2-0.4l0.1-0.5l0.1-0.6l0-0.6l0-0.6l-0.1-0.6
				l0-0.2L398.3,646.8z"/>
		</g>
		<g id="XMLID_21_">
			<path id="XMLID_58_" class="st6" d="M223.2,575.2v7.9h-2.5v-7.9h-0.9v-1.9h0.9v-0.6c0-1.3,0.5-2.1,1.2-2.7
				c0.7-0.5,1.6-0.6,2.6-0.6v2.3c-0.9,0-1.3,0.4-1.3,1.2v0.4h1.3v1.9H223.2z"/>
			<path id="XMLID_56_" class="st6" d="M229.9,583.1v-0.7c-0.2,0.2-0.5,0.5-0.7,0.6c-0.3,0.2-0.6,0.2-1,0.2c-0.9,0-1.5-0.3-2-0.9
				c-0.4-0.5-0.6-1-0.6-2.3v-7.2h2.5v7.2c0,0.6,0.3,0.9,0.8,0.9c0.5,0,0.8-0.3,0.8-0.9v-7.2h2.5v10.2H229.9z"/>
			<path id="XMLID_54_" class="st6" d="M238.2,583.1v-7.2c0-0.6-0.3-0.9-0.8-0.9s-0.8,0.3-0.8,0.9v7.2h-2.5v-10.2h2.4v0.7
				c0.2-0.2,0.5-0.5,0.7-0.6c0.3-0.2,0.6-0.2,1-0.2c0.9,0,1.5,0.3,2,0.9c0.4,0.5,0.6,1,0.6,2.3v7.2H238.2z"/>
			<path id="XMLID_52_" class="st6" d="M248,582.5c-0.6,0.6-1.4,0.8-2.4,0.8c-1.1,0-2-0.2-2.7-1.2c-0.6-1-0.7-2.7-0.7-4
				s0.1-3.1,0.7-4c0.7-1,1.6-1.2,2.7-1.2c0.9,0,1.7,0.2,2.3,0.8s1,1.6,1,2.5h-2.5c0-0.2-0.1-0.5-0.2-0.7c-0.1-0.2-0.3-0.3-0.6-0.3
				c-0.2,0-0.5,0.1-0.7,0.4c-0.2,0.4-0.2,1.4-0.2,2.6s0,2.2,0.2,2.6c0.1,0.3,0.4,0.4,0.7,0.4c0.3,0,0.5-0.2,0.6-0.3
				c0.1-0.2,0.2-0.5,0.2-0.7h2.5C248.9,580.9,248.5,581.9,248,582.5z"/>
			<path id="XMLID_49_" class="st6" d="M256.1,582c-0.7,1-1.6,1.2-2.7,1.2s-2-0.2-2.7-1.2c-0.6-1-0.7-2.7-0.7-4s0.1-3.1,0.7-4
				c0.7-1,1.6-1.2,2.7-1.2s2,0.2,2.7,1.2c0.6,1,0.7,2.7,0.7,4S256.7,581.1,256.1,582z M254,575.4c-0.1-0.3-0.4-0.4-0.7-0.4
				s-0.5,0.1-0.7,0.4c-0.2,0.4-0.2,1.4-0.2,2.6s0,2.2,0.2,2.6c0.1,0.3,0.4,0.4,0.7,0.4s0.5-0.1,0.7-0.4c0.2-0.4,0.2-1.4,0.2-2.6
				S254.2,575.8,254,575.4z"/>
			<path id="XMLID_47_" class="st6" d="M263.6,582.4c-0.7,0.7-1.5,0.9-2.4,0.9s-1.9-0.3-2.4-0.9c-0.6-0.6-1-1.3-1-2.3h2.5
				c0,0.3,0.1,0.5,0.3,0.7c0.2,0.2,0.4,0.3,0.6,0.3c0.3,0,0.4,0,0.6-0.2c0.1-0.1,0.2-0.4,0.2-0.6s0-0.4-0.2-0.6
				c-0.2-0.2-0.4-0.3-0.7-0.4l-1.4-0.6c-0.7-0.3-1.3-0.7-1.6-1.2c-0.2-0.4-0.3-0.8-0.3-1.4c0-1.1,0.4-1.8,0.9-2.4
				c0.6-0.6,1.5-0.9,2.4-0.9c0.9,0,1.7,0.3,2.3,0.8c0.6,0.5,0.9,1.3,0.9,2.3H262c0-0.3-0.1-0.5-0.2-0.6c-0.2-0.2-0.4-0.2-0.6-0.2
				c-0.2,0-0.5,0.1-0.6,0.2c-0.2,0.1-0.2,0.3-0.2,0.6c0,0.2,0,0.3,0.1,0.5c0.1,0.2,0.3,0.3,0.6,0.5l1.4,0.5c0.7,0.3,1.2,0.6,1.5,1.1
				c0.3,0.4,0.5,0.9,0.5,1.7C264.6,581.1,264.1,581.8,263.6,582.4z"/>
			<path id="XMLID_45_" class="st6" d="M267.5,582.5c-0.7-0.5-1.2-1.3-1.2-2.7v-4.6h-1v-1.9h1v-2.8h2.5v2.8h1.3v1.9h-1.3v4.4
				c0,0.8,0.4,1.2,1.3,1.2v2.3C269.1,583.1,268.2,583,267.5,582.5z"/>
			<path id="XMLID_42_" class="st6" d="M275.5,583.1v-0.8c-0.2,0.2-0.4,0.5-0.7,0.7c-0.3,0.2-0.6,0.3-1.1,0.3c-0.9,0-1.5-0.3-2.1-1
				c-0.4-0.5-0.6-1.3-0.6-2.3c0-0.9,0.3-1.7,1-2.3c0.5-0.4,1.2-0.7,2.5-0.7h0.8v-1.2c0-0.6-0.3-0.9-0.8-0.9c-0.3,0-0.4,0.1-0.6,0.2
				c-0.2,0.2-0.2,0.4-0.2,0.7h-2.5c0-0.8,0.3-1.6,0.9-2.3c0.5-0.5,1.5-0.9,2.4-0.9c0.9,0,1.7,0.2,2.4,0.8c0.6,0.6,1,1.4,1,2.5v7
				H275.5z M275.3,578.8h-0.4c-0.4,0-0.7,0-1,0.2c-0.2,0.2-0.3,0.6-0.3,0.9c0,0.7,0.3,1.1,0.9,1.1c0.5,0,0.9-0.4,0.9-1.1V578.8z"/>
			<path id="XMLID_40_" class="st6" d="M283.7,575.2c-0.9,0-1.6,0.6-1.6,1.6v6.2h-2.5v-10.2h2.4v1.1c0.3-0.4,0.7-0.7,1.1-0.9
				c0.4-0.2,0.9-0.3,1.5-0.3v2.5H283.7z"/>
			<path id="XMLID_37_" class="st6" d="M285.8,583.1v-9.8h2.5v9.8H285.8z M285.7,572.2v-2.7h2.7v2.7H285.7z"/>
			<path id="XMLID_35_" class="st6" d="M295.6,582.5c-0.6,0.6-1.4,0.8-2.4,0.8c-1.1,0-2-0.2-2.7-1.2c-0.6-1-0.7-2.7-0.7-4
				s0.1-3.1,0.7-4c0.7-1,1.6-1.2,2.7-1.2c0.9,0,1.7,0.2,2.3,0.8c0.7,0.6,1,1.6,1,2.5H294c0-0.2-0.1-0.5-0.2-0.7
				c-0.1-0.2-0.3-0.3-0.6-0.3c-0.2,0-0.5,0.1-0.7,0.4c-0.2,0.4-0.2,1.4-0.2,2.6s0,2.2,0.2,2.6c0.1,0.3,0.4,0.4,0.7,0.4
				c0.3,0,0.5-0.2,0.6-0.3c0.1-0.2,0.2-0.5,0.2-0.7h2.5C296.5,580.9,296.2,581.9,295.6,582.5z"/>
			<path id="XMLID_32_" class="st6" d="M301.9,583.1v-0.8c-0.2,0.2-0.4,0.5-0.7,0.7c-0.3,0.2-0.6,0.3-1.1,0.3c-0.9,0-1.5-0.3-2.1-1
				c-0.4-0.5-0.6-1.3-0.6-2.3c0-0.9,0.3-1.7,1-2.3c0.5-0.4,1.2-0.7,2.5-0.7h0.8v-1.2c0-0.6-0.3-0.9-0.8-0.9c-0.3,0-0.4,0.1-0.6,0.2
				c-0.2,0.2-0.2,0.4-0.2,0.7h-2.5c0-0.8,0.3-1.6,0.9-2.3c0.5-0.5,1.5-0.9,2.4-0.9c0.9,0,1.7,0.2,2.4,0.8c0.6,0.6,1,1.4,1,2.5v7
				H301.9z M301.7,578.8h-0.4c-0.4,0-0.7,0-1,0.2c-0.2,0.2-0.3,0.6-0.3,0.9c0,0.7,0.3,1.1,0.9,1.1c0.5,0,0.9-0.4,0.9-1.1V578.8z"/>
			<path id="XMLID_30_" class="st6" d="M306.1,583.1v-2.8h2.8v2.8H306.1z"/>
			<path id="XMLID_27_" class="st6" d="M316.6,582c-0.7,1-1.6,1.2-2.7,1.2s-2-0.2-2.7-1.2c-0.6-1-0.7-2.7-0.7-4s0.1-3.1,0.7-4
				c0.7-1,1.6-1.2,2.7-1.2s2,0.2,2.7,1.2c0.6,1,0.7,2.7,0.7,4S317.2,581.1,316.6,582z M314.6,575.4c-0.1-0.3-0.4-0.4-0.7-0.4
				s-0.5,0.1-0.7,0.4c-0.2,0.4-0.2,1.4-0.2,2.6s0,2.2,0.2,2.6c0.1,0.3,0.4,0.4,0.7,0.4s0.5-0.1,0.7-0.4c0.2-0.4,0.2-1.4,0.2-2.6
				S314.7,575.8,314.6,575.4z"/>
			<path id="XMLID_25_" class="st6" d="M322.9,575.2c-0.9,0-1.6,0.6-1.6,1.6v6.2h-2.5v-10.2h2.4v1.1c0.3-0.4,0.7-0.7,1.1-0.9
				c0.4-0.2,0.9-0.3,1.5-0.3v2.5H322.9z"/>
			<path id="XMLID_22_" class="st6" d="M328.7,581.4c-0.2,0.2-0.4,0.4-0.6,0.5c-0.3,0.2-0.6,0.2-1,0.2c-0.8,0-1.3-0.2-1.8-0.8
				c-0.7-0.8-0.8-1.9-0.8-3.9s0.2-3.1,0.8-3.9c0.5-0.6,1-0.8,1.8-0.8c0.4,0,0.7,0.1,1,0.2c0.2,0.2,0.5,0.3,0.6,0.5v-0.6h2.4v10.4
				c0,1.1-0.4,1.9-0.9,2.5c-0.6,0.6-1.5,0.9-2.4,0.9c-0.9,0-1.8-0.3-2.4-0.9c-0.7-0.6-0.9-1.5-0.9-2.3h2.5c0,0.3,0.1,0.5,0.2,0.7
				c0.1,0.2,0.3,0.3,0.6,0.3c0.2,0,0.5-0.1,0.6-0.3c0.1-0.2,0.2-0.4,0.2-0.7V581.4z M328.7,575.9c0-0.3-0.1-0.6-0.2-0.7
				c-0.1-0.2-0.3-0.2-0.6-0.2c-0.3,0-0.5,0.1-0.6,0.4c-0.2,0.3-0.2,0.7-0.2,2.1c0,1.4,0.1,1.9,0.2,2.1c0.2,0.2,0.4,0.4,0.6,0.4
				c0.2,0,0.4-0.1,0.6-0.2c0.2-0.2,0.2-0.4,0.2-0.7V575.9z"/>
		</g>
		<path id="XMLID_20_" class="st1" d="M457,606.4l-10.5-34.6l-12.1-22.6l0,0l-4.9-9.2l-2.2-2.6l-6.2-7.6l-14.5-17.7l-2.9-2.4
			l-8.6-7.1l-8.6-7l-7.8-6.4l-8.7-4.6l-1.6-0.8l-9.8-5.3l-11.8-6.3l-11.1-3.4l-23.5-7.1l-1.2-0.1l-4.4-0.4l-2-0.2v2
			c0,0.9-0.7,1.6-1.6,1.6h-4.1c-0.9,0-1.6-0.7-1.6-1.6v-2.7l-0.1,0l-2.9-0.3l-18-1.8l-18,1.8l-2.9,0.3l0,0v2.7
			c0,0.9-0.7,1.6-1.6,1.6h-4.1c-0.9,0-1.6-0.7-1.6-1.6v-2l-2,0.2l-0.4,0l-4,0.4l-1.2,0.1l-34.6,10.5L185.4,483l-11.5,6.1l-2.6,2.2
			l-11.4,9.3L146,512.1l-9.5,11.5L123.1,540l-5,9.3L106,571.9l-10.5,34.6l-1.4,14.5L92,642.4l3.5,35.9l10.5,34.6l12.1,22.6l5,9.3
			l14,17l8.9,10.9l9.5,7.8l15.3,12.5l3.2,2.6l10.2,5.5l21.6,11.6l34.6,10.5l1.2,0.1l4,0.4l0.4,0l1.9,0.2v-2.6c0-0.8,0.6-1.4,1.4-1.4
			h4.5c0.8,0,1.4,0.6,1.4,1.4v3.4l0.2,0l20.9,2.1l18-1.8l2.9-0.3l0.1,0v-3.4c0-0.8,0.6-1.4,1.4-1.4h4.5c0.8,0,1.4,0.6,1.4,1.4v2.7
			l7.6-0.7l31.3-9.5l3.2-1l11.8-6.3l10.8-5.8l9.2-4.9l17-14l0.8-0.6l7.7-6.3l2.4-2l20.3-24.7l1.7-2.1l0.9-1.1l4.6-8.7l11.4-21.4
			l1-1.8l10.5-34.6l3.1-31l0.5-4.9L457,606.4z"/>
		<path id="XMLID_19_" class="st0" d="M294.3,474l-7-5.7h-19.8l-6,5.7h-15.8v52.4h7.6c4,0,13.2,3.2,13.2,7.2c0,1.5,1.2,2.7,2.7,2.7
			h17.6c1.5,0,2.7-1.2,2.7-2.7c0-4,9.2-7.2,13.2-7.2h6.5V474H294.3z"/>
		<path id="XMLID_140_" class="st0" d="M260.5,810.3l7,5.7h19.8l6-5.7h15.8v-52.4h-7.6c-4,0-13.2-3.2-13.2-7.2
			c0-1.5-1.2-2.7-2.7-2.7H268c-1.5,0-2.7,1.2-2.7,2.7c0,4-9.2,7.2-13.2,7.2h-6.5v52.4H260.5z"/>
		<rect id="XMLID_143_" x="295.6" y="747.1" class="st0" width="6.8" height="6.8"/>
		<rect id="XMLID_142_" x="250" y="747.1" class="st0" width="6.8" height="6.8"/>
		<rect id="XMLID_141_" x="250.1" y="530.4" class="st0" width="6.8" height="6.8"/>
		<rect id="XMLID_171_" x="295.6" y="530.4" class="st0" width="6.8" height="6.8"/>
	</g>
	<g id="XMLID_175_">
		<path id="XMLID_179_" class="st0" d="M112.5,606.9L112.5,606.9c2.9,0.6,5.7-1.2,6.4-4c4.1-16.4,10.7-31.7,19.4-45.7
			c1.6-2.5,0.9-5.8-1.6-7.5l0,0c-2.6-1.8-6.1-1-7.8,1.6c-9.3,14.9-16.3,31.4-20.7,48.9C107.5,603.2,109.5,606.2,112.5,606.9z"/>
		<path id="XMLID_181_" class="st0" d="M321.9,481.2L321.9,481.2c-0.8,2.8,0.8,5.8,3.6,6.7c12,3.8,23.4,9.1,34.1,15.4
			c2.5,1.5,5.8,0.8,7.4-1.7l0,0c1.7-2.6,0.9-6.1-1.7-7.7c-11.4-6.8-23.6-12.4-36.4-16.5C325.9,476.4,322.7,478.2,321.9,481.2z"/>
		<path id="XMLID_182_" class="st0" d="M137.6,726.4c-8.1-13.4-14.4-28-18.4-43.5c-0.7-2.9-3.6-4.6-6.5-4l0,0
			c-3.1,0.6-5,3.7-4.2,6.7c4.3,16.6,11,32.3,19.7,46.6c1.6,2.7,5.1,3.4,7.7,1.7l0,0C138.4,732.2,139.1,728.9,137.6,726.4z"/>
		<path id="XMLID_184_" class="st0" d="M367.6,782.7L367.6,782.7c-1.6-2.5-4.9-3.2-7.4-1.6c-11.4,6.9-23.8,12.5-36.8,16.5
			c-2.8,0.9-4.5,3.8-3.7,6.6l0,0c0.8,3,3.9,4.8,6.9,3.9c13.9-4.2,27.2-10.2,39.4-17.6C368.5,788.9,369.3,785.3,367.6,782.7z"/>
		<path id="XMLID_185_" class="st0" d="M416.5,550.9L416.5,550.9c-2.5,1.6-3.2,4.9-1.6,7.4c8.1,13.4,14.4,28,18.4,43.5
			c0.7,2.9,3.6,4.6,6.5,4l0,0c3.1-0.6,5-3.7,4.2-6.7c-4.3-16.6-11-32.3-19.7-46.6C422.7,549.9,419.1,549.2,416.5,550.9z"/>
		<path id="XMLID_186_" class="st0" d="M184.9,502L184.9,502c1.6,2.5,4.9,3.2,7.4,1.6c11.4-6.9,23.8-12.5,36.8-16.5
			c2.8-0.9,4.5-3.8,3.7-6.6l0,0c-0.8-3-3.9-4.8-6.9-3.9c-13.9,4.2-27.2,10.2-39.4,17.6C184,495.9,183.2,499.4,184.9,502z"/>
		<path id="XMLID_187_" class="st0" d="M230.6,803.6L230.6,803.6c0.8-2.8-0.8-5.8-3.6-6.7c-12-3.8-23.4-9.1-34.1-15.4
			c-2.5-1.5-5.8-0.8-7.4,1.7l0,0c-1.7,2.6-0.9,6.1,1.7,7.7c11.4,6.8,23.6,12.4,36.4,16.5C226.6,808.3,229.8,806.6,230.6,803.6z"/>
		<path id="XMLID_194_" class="st0" d="M440,677.9L440,677.9c-2.9-0.6-5.7,1.2-6.4,4c-4.1,16.4-10.7,31.7-19.4,45.7
			c-1.6,2.5-0.9,5.8,1.6,7.5l0,0c2.6,1.8,6.1,1,7.8-1.6c9.3-14.9,16.3-31.4,20.7-48.9C445,681.5,443,678.5,440,677.9z"/>
	</g>
</g>
</svg>
